<svg xmlns="http://www.w3.org/2000/svg" xmlns:xlink="http://www.w3.org/1999/xlink" width="1080" zoomAndPan="magnify" viewBox="0 0 810 809.999993" height="1080" preserveAspectRatio="xMidYMid meet" version="1.0"><defs><filter x="0%" y="0%" width="100%" height="100%" id="c8b3a8c44c"><feColorMatrix values="0 0 0 0 1 0 0 0 0 1 0 0 0 0 1 0 0 0 1 0" color-interpolation-filters="sRGB"/></filter><g/><mask id="eb6aa2f638"><g filter="url(#c8b3a8c44c)"><rect x="-81" width="972" fill="#000000" y="-80.999999" height="971.999992" fill-opacity="0.95"/></g></mask><clipPath id="07c727ac7d"><rect x="0" width="235" y="0" height="190"/></clipPath><mask id="d2bb9456d8"><g filter="url(#c8b3a8c44c)"><rect x="-81" width="972" fill="#000000" y="-80.999999" height="971.999992" fill-opacity="0.9"/></g></mask><clipPath id="e61e05c4d7"><path d="M 0.71875 0.238281 L 516 0.238281 L 516 4.800781 L 0.71875 4.800781 Z M 0.71875 0.238281 " clip-rule="nonzero"/></clipPath><clipPath id="ab91c7ac40"><rect x="0" width="517" y="0" height="5"/></clipPath><mask id="3c6e0dfc9b"><g filter="url(#c8b3a8c44c)"><rect x="-81" width="972" fill="#000000" y="-80.999999" height="971.999992" fill-opacity="0.9"/></g></mask><clipPath id="02dc542999"><path d="M 0.878906 0.0390625 L 511.839844 0.0390625 L 511.839844 64.359375 L 0.878906 64.359375 Z M 0.878906 0.0390625 " clip-rule="nonzero"/></clipPath><clipPath id="564e4aaa72"><rect x="0" width="512" y="0" height="65"/></clipPath><clipPath id="555af8c423"><rect x="0" width="512" y="0" height="65"/></clipPath><mask id="66deabfb40"><g filter="url(#c8b3a8c44c)"><rect x="-81" width="972" fill="#000000" y="-80.999999" height="971.999992" fill-opacity="0.9"/></g></mask><clipPath id="8e6e6b3da7"><path d="M 0.601562 0.800781 L 511.800781 0.800781 L 511.800781 44.71875 L 0.601562 44.71875 Z M 0.601562 0.800781 " clip-rule="nonzero"/></clipPath><clipPath id="64ec7c4277"><rect x="0" width="512" y="0" height="45"/></clipPath><clipPath id="cb439139ea"><rect x="0" width="512" y="0" height="45"/></clipPath></defs><rect x="-81" width="972" fill="#ffffff" y="-80.999999" height="971.999992" fill-opacity="1"/><rect x="-81" width="972" fill="#ffffff" y="-80.999999" height="971.999992" fill-opacity="1"/><g mask="url(#eb6aa2f638)"><g transform="matrix(1, 0, 0, 1, 32, 310)"><g clip-path="url(#07c727ac7d)"><path fill="#144056" d="M 218.800781 150.902344 L 205.574219 137.625 L 159.078125 93.699219 L 218.1875 37.40625 C 218.429688 37.210938 218.710938 36.957031 218.992188 36.625 C 222.191406 32.78125 220.464844 23.6875 214.992188 19.089844 C 210.261719 15.113281 202.957031 14.699219 196.816406 18.148438 L 188.625 26.023438 L 93.476562 114.648438 C 93.113281 115.164062 92.535156 115.871094 91.660156 116.523438 C 90.695312 117.25 90.242188 117.699219 89.578125 117.664062 C 88.613281 117.617188 87.957031 116.683594 87.761719 116.386719 L 49.9375 80.804688 C 49.683594 80.539062 49.304688 80.152344 48.820312 79.734375 C 48.265625 79.25 42.640625 74.496094 35.394531 75.347656 C 29.410156 76.050781 24.152344 80.355469 21.742188 86.40625 L 21.742188 160.546875 C 21.742188 160.613281 21.738281 160.703125 21.742188 160.816406 C 21.816406 164.003906 24.421875 166.332031 25.589844 167.375 C 27.703125 169.257812 31.542969 171.46875 36.113281 171.316406 C 42.070312 171.117188 47.59375 166.953125 50.257812 160.753906 L 50.257812 121.8125 L 80.117188 147.78125 C 80.300781 147.996094 80.582031 148.296875 80.953125 148.628906 C 84.21875 151.558594 88.574219 151.5 89.917969 151.480469 C 96.128906 151.398438 100.386719 147.222656 101.332031 146.242188 L 129.066406 120.890625 L 129.066406 159.941406 C 129.078125 160.113281 129.109375 160.347656 129.152344 160.617188 C 130.097656 166.019531 136.675781 171.628906 143.632812 171.492188 C 150.648438 171.355469 157.1875 165.40625 158.226562 157.210938 L 158.140625 133.648438 L 196.109375 168.328125 C 196.324219 168.554688 196.617188 168.839844 196.992188 169.132812 C 201.464844 172.636719 210.640625 172.125 215.796875 166.660156 C 221.484375 160.625 219.101562 151.929688 218.976562 151.488281 Z M 218.800781 150.902344 " fill-opacity="1" fill-rule="nonzero"/><path fill="#144056" d="M 157.734375 26.878906 C 155.941406 20.460938 150.191406 15.960938 143.722656 15.820312 C 135.8125 15.644531 130.175781 22.058594 128.988281 27.082031 C 128.953125 27.226562 128.925781 27.359375 128.90625 27.457031 L 128.90625 66.667969 L 157.734375 40.441406 Z M 157.734375 26.878906 " fill-opacity="1" fill-rule="nonzero"/><path fill="#ff6600" d="M 176.527344 28.8125 L 81.382812 117.441406 C 81.023438 117.957031 80.441406 118.664062 79.570312 119.320312 C 78.605469 120.046875 78.148438 120.492188 77.488281 120.460938 C 76.519531 120.410156 75.867188 119.480469 75.671875 119.183594 L 37.847656 83.601562 C 37.59375 83.332031 37.214844 82.945312 36.730469 82.527344 C 36.175781 82.042969 30.550781 77.289062 23.304688 78.144531 C 17.320312 78.84375 12.0625 83.152344 9.652344 89.199219 L 9.652344 163.34375 C 9.652344 163.40625 9.648438 163.5 9.652344 163.609375 C 9.722656 166.800781 12.328125 169.125 13.5 170.171875 C 15.613281 172.050781 19.449219 174.261719 24.019531 174.109375 C 29.980469 173.910156 35.5 169.746094 38.164062 163.546875 L 38.164062 124.605469 L 68.023438 150.574219 C 68.210938 150.789062 68.492188 151.089844 68.863281 151.421875 C 72.125 154.355469 76.480469 154.296875 77.828125 154.277344 C 84.035156 154.191406 88.296875 150.019531 89.242188 149.039062 L 116.972656 123.683594 L 116.972656 162.738281 C 116.988281 162.910156 117.019531 163.140625 117.0625 163.410156 C 118.007812 168.8125 124.582031 174.421875 131.542969 174.285156 C 138.558594 174.148438 145.097656 168.199219 146.136719 160.007812 L 146.046875 136.441406 L 184.019531 171.121094 C 184.234375 171.351562 184.527344 171.632812 184.902344 171.925781 C 189.375 175.433594 198.550781 174.921875 203.703125 169.453125 C 209.390625 163.421875 207.011719 154.726562 206.882812 154.28125 L 206.71875 153.699219 L 193.492188 140.425781 L 146.996094 96.5 L 206.089844 40.195312 C 206.332031 40 206.617188 39.746094 206.894531 39.414062 C 210.09375 35.574219 208.367188 26.476562 202.894531 21.878906 C 198.164062 17.902344 190.863281 17.488281 184.722656 20.9375 Z M 176.527344 28.8125 " fill-opacity="1" fill-rule="nonzero"/><path fill="#ff6600" d="M 116.8125 69.457031 L 116.8125 30.246094 C 116.832031 30.148438 116.855469 30.023438 116.894531 29.871094 C 118.085938 24.847656 123.726562 18.433594 131.632812 18.609375 C 138.097656 18.753906 143.847656 23.242188 145.644531 29.667969 L 145.644531 43.230469 Z M 116.8125 69.457031 " fill-opacity="1" fill-rule="nonzero"/></g></g></g><g mask="url(#d2bb9456d8)"><g transform="matrix(1, 0, 0, 1, 264, 408)"><g clip-path="url(#ab91c7ac40)"><g clip-path="url(#e61e05c4d7)"><path stroke-linecap="butt" transform="matrix(0.75, 0, 0, 0.75, 3.008955, 0.290039)" fill="none" stroke-linejoin="miter" d="M -0.00152321 2.998699 L 680.550594 2.998699 " stroke="#ef6837" stroke-width="6" stroke-opacity="1" stroke-miterlimit="4"/></g></g></g></g><g mask="url(#3c6e0dfc9b)"><g transform="matrix(1, 0, 0, 1, 266, 347)"><g clip-path="url(#555af8c423)"><g clip-path="url(#02dc542999)"><g transform="matrix(1, 0, 0, 1, -0.000000000000056843, 0.000000000000056843)"><g clip-path="url(#564e4aaa72)"><g fill="#144056" fill-opacity="1"><g transform="translate(1.445004, 44.599165)"><g><path d="M 1.375 0 Z M 34.765625 0 L 30.3125 0 L 30.3125 1.34375 C 30.3125 2.800781 29.96875 4.195312 29.28125 5.53125 C 28.59375 6.863281 27.515625 7.957031 26.046875 8.8125 C 24.578125 9.675781 22.734375 10.109375 20.515625 10.109375 L 10.859375 10.109375 C 8.609375 10.109375 6.773438 9.675781 5.359375 8.8125 C 3.941406 7.957031 2.921875 6.863281 2.296875 5.53125 C 1.679688 4.195312 1.375 2.765625 1.375 1.234375 C 1.375 -0.691406 1.878906 -4.503906 2.890625 -10.203125 L 8.390625 -9.28125 L 8.046875 -7.109375 C 7.722656 -5.046875 7.472656 -3.394531 7.296875 -2.15625 C 7.128906 -0.925781 7.046875 0.0664062 7.046875 0.828125 C 7.046875 3.410156 8.289062 4.703125 10.78125 4.703125 L 20.609375 4.703125 C 22.015625 4.703125 22.992188 4.320312 23.546875 3.5625 C 24.109375 2.8125 24.390625 1.929688 24.390625 0.921875 L 24.390625 0 L 20.609375 0 C 18.597656 0 17.078125 -0.160156 16.046875 -0.484375 C 15.015625 -0.804688 14.234375 -1.546875 13.703125 -2.703125 C 13.179688 -3.859375 12.921875 -5.660156 12.921875 -8.109375 C 12.921875 -10.835938 13.25 -12.835938 13.90625 -14.109375 C 14.570312 -15.378906 15.582031 -16.195312 16.9375 -16.5625 C 18.289062 -16.925781 20.316406 -17.109375 23.015625 -17.109375 C 25.078125 -17.109375 26.726562 -17.039062 27.96875 -16.90625 L 30.3125 -16.625 L 30.3125 -5.390625 L 34.765625 -5.390625 Z M 18.828125 -8.140625 C 18.828125 -7.335938 18.890625 -6.734375 19.015625 -6.328125 C 19.140625 -5.929688 19.320312 -5.671875 19.5625 -5.546875 C 19.800781 -5.421875 20.140625 -5.359375 20.578125 -5.359375 L 21.921875 -5.390625 L 24.390625 -5.390625 L 24.390625 -11.6875 L 23.0625 -11.6875 C 21.84375 -11.6875 20.96875 -11.632812 20.4375 -11.53125 C 19.914062 -11.425781 19.515625 -11.125 19.234375 -10.625 C 18.960938 -10.132812 18.828125 -9.304688 18.828125 -8.140625 Z M 18.6875 -25.59375 L 22.84375 -25.59375 L 22.84375 -20.375 L 18.6875 -20.375 Z M 24.53125 -25.59375 L 28.6875 -25.59375 L 28.6875 -20.375 L 24.53125 -20.375 Z M 24.53125 -25.59375 "/></g></g></g><g fill="#144056" fill-opacity="1"><g transform="translate(36.224506, 44.599165)"><g><path d="M 0 0 Z M 0 -5.390625 L 4.125 -5.390625 C 4.164062 -5.347656 4.117188 -5.78125 3.984375 -6.6875 C 3.847656 -7.59375 3.78125 -8.535156 3.78125 -9.515625 C 3.78125 -11.503906 4.15625 -13.050781 4.90625 -14.15625 C 5.664062 -15.257812 6.785156 -16.023438 8.265625 -16.453125 C 9.742188 -16.890625 11.671875 -17.109375 14.046875 -17.109375 C 16.242188 -17.109375 17.882812 -17.039062 18.96875 -16.90625 L 21.296875 -16.625 L 21.296875 0 L 0 0 Z M 15.390625 -5.390625 L 15.390625 -11.78125 C 14.429688 -11.832031 13.828125 -11.859375 13.578125 -11.859375 C 12.453125 -11.859375 11.640625 -11.773438 11.140625 -11.609375 C 10.648438 -11.453125 10.304688 -11.113281 10.109375 -10.59375 C 9.921875 -10.082031 9.828125 -9.234375 9.828125 -8.046875 C 9.828125 -7.097656 9.859375 -6.457031 9.921875 -6.125 C 9.992188 -5.800781 10.039062 -5.554688 10.0625 -5.390625 Z M 10.234375 -25.90625 L 15.5625 -25.90625 L 15.5625 -20.375 L 10.234375 -20.375 Z M 10.234375 -25.90625 "/></g></g></g><g fill="#144056" fill-opacity="1"><g transform="translate(59.250522, 44.599165)"><g><path d="M 2.515625 -23.640625 L 8.421875 -23.640625 L 8.421875 0 L 2.515625 0 Z M 2.515625 -23.640625 "/></g></g></g><g fill="#144056" fill-opacity="1"><g transform="translate(70.763529, 44.599165)"><g><path d="M 16.21875 0 L 9.65625 0 C 9.582031 2.613281 9.066406 4.679688 8.109375 6.203125 C 7.148438 7.722656 5.726562 8.484375 3.84375 8.484375 C 3.34375 8.484375 2.519531 8.453125 1.375 8.390625 L 1.375 3.0625 L 1.890625 3.09375 C 3.128906 3.09375 3.75 2.15625 3.75 0.28125 L 3.75 -17.21875 L 9.65625 -17.21875 L 9.65625 -5.390625 L 16.21875 -5.390625 Z M 16.21875 0 "/></g></g></g><g fill="#144056" fill-opacity="1"><g transform="translate(86.984799, 44.599165)"><g><path d="M 26.359375 -5.390625 L 26.359375 0 L 23.953125 0 C 23.671875 0 23.414062 -0.0820312 23.1875 -0.25 C 22.957031 -0.425781 22.785156 -0.664062 22.671875 -0.96875 L 22.671875 0 L 0 0 L 0 -5.390625 L 5.125 -5.390625 C 4.820312 -6.671875 4.671875 -7.757812 4.671875 -8.65625 C 4.671875 -9.738281 4.820312 -10.988281 5.125 -12.40625 C 5.4375 -13.820312 5.78125 -15.082031 6.15625 -16.1875 C 6.789062 -16.507812 7.769531 -16.800781 9.09375 -17.0625 C 10.425781 -17.320312 11.941406 -17.453125 13.640625 -17.453125 C 16.367188 -17.453125 18.382812 -17.070312 19.6875 -16.3125 C 20.988281 -15.5625 21.8125 -14.585938 22.15625 -13.390625 C 22.5 -12.203125 22.671875 -10.601562 22.671875 -8.59375 L 22.671875 -6.765625 C 22.816406 -6.359375 23.007812 -6.023438 23.25 -5.765625 C 23.488281 -5.515625 23.722656 -5.390625 23.953125 -5.390625 Z M 10.34375 -8.65625 C 10.34375 -8.082031 10.394531 -7.5 10.5 -6.90625 C 10.601562 -6.3125 10.710938 -5.804688 10.828125 -5.390625 L 16.765625 -5.390625 L 16.765625 -8.734375 C 16.765625 -9.535156 16.710938 -10.148438 16.609375 -10.578125 C 16.503906 -11.015625 16.1875 -11.382812 15.65625 -11.6875 C 15.132812 -12 14.300781 -12.15625 13.15625 -12.15625 C 12.289062 -12.15625 11.46875 -12.066406 10.6875 -11.890625 C 10.457031 -10.628906 10.34375 -9.550781 10.34375 -8.65625 Z M 10.34375 -8.65625 "/></g></g></g><g fill="#144056" fill-opacity="1"><g transform="translate(113.34436, 44.599165)"><g><path d="M 10.140625 -23.640625 L 10.140625 0 L 0 0 L 0 -5.390625 L 4.21875 -5.390625 L 4.21875 -23.640625 Z M 10.140625 -23.640625 "/></g></g></g><g fill="#144056" fill-opacity="1"><g transform="translate(125.991491, 44.599165)"><g><path d="M 2.515625 -23.640625 L 8.421875 -23.640625 L 8.421875 0 L 2.515625 0 Z M 2.515625 -23.640625 "/></g></g></g><g fill="#144056" fill-opacity="1"><g transform="translate(137.504498, 44.599165)"><g/></g></g><g fill="#144056" fill-opacity="1"><g transform="translate(145.065278, 44.599165)"><g><path d="M 1.375 0 Z M 11.8125 -17.515625 C 13.351562 -17.515625 15.039062 -17.460938 16.875 -17.359375 C 18.707031 -17.265625 19.929688 -17.160156 20.546875 -17.046875 L 20.546875 0 L 11.296875 0 C 8.847656 0 6.9375 -0.203125 5.5625 -0.609375 C 4.1875 -1.023438 3.144531 -1.878906 2.4375 -3.171875 C 1.726562 -4.472656 1.375 -6.425781 1.375 -9.03125 C 1.375 -11.457031 1.707031 -13.269531 2.375 -14.46875 C 3.039062 -15.675781 4.09375 -16.484375 5.53125 -16.890625 C 6.976562 -17.304688 9.070312 -17.515625 11.8125 -17.515625 Z M 7.28125 -9 C 7.28125 -7.90625 7.4375 -7.097656 7.75 -6.578125 C 8.0625 -6.066406 8.488281 -5.738281 9.03125 -5.59375 C 9.582031 -5.457031 10.375 -5.390625 11.40625 -5.390625 L 14.640625 -5.390625 L 14.640625 -12.03125 C 13.191406 -12.09375 12.226562 -12.125 11.75 -12.125 C 10.539062 -12.125 9.632812 -12.0625 9.03125 -11.9375 C 8.4375 -11.8125 7.992188 -11.523438 7.703125 -11.078125 C 7.421875 -10.628906 7.28125 -9.9375 7.28125 -9 Z M 7.171875 -25.59375 L 11.328125 -25.59375 L 11.328125 -20.375 L 7.171875 -20.375 Z M 13.015625 -25.59375 L 17.171875 -25.59375 L 17.171875 -20.375 L 13.015625 -20.375 Z M 13.015625 -25.59375 "/></g></g></g><g fill="#144056" fill-opacity="1"><g transform="translate(167.129014, 44.599165)"><g><path d="M 3.84375 8.484375 C 3.34375 8.484375 2.519531 8.453125 1.375 8.390625 L 1.375 3.0625 L 1.890625 3.09375 C 3.128906 3.09375 3.75 2.15625 3.75 0.28125 L 3.75 -17.21875 L 9.65625 -17.21875 L 9.65625 -0.578125 C 9.65625 2.210938 9.171875 4.421875 8.203125 6.046875 C 7.242188 7.671875 5.789062 8.484375 3.84375 8.484375 Z M 3.84375 8.484375 "/></g></g></g><g fill="#144056" fill-opacity="1"><g transform="translate(178.573289, 44.599165)"><g><path d="M 2.515625 -23.640625 L 8.421875 -23.640625 L 8.421875 0 L 2.515625 0 Z M 2.515625 -23.640625 "/></g></g></g><g fill="#144056" fill-opacity="1"><g transform="translate(190.086297, 44.599165)"><g><path d="M 8.734375 -18 C 10.722656 -18 12.425781 -17.492188 13.84375 -16.484375 C 15.269531 -15.484375 16.351562 -14.039062 17.09375 -12.15625 C 17.832031 -10.28125 18.203125 -8.0625 18.203125 -5.5 L 18.203125 0 L 1.375 0 L 1.375 -5.390625 L 12.296875 -5.390625 C 12.234375 -7.890625 11.707031 -9.695312 10.71875 -10.8125 C 9.738281 -11.9375 8.570312 -12.5 7.21875 -12.5 L 3.265625 -12.5 L 2.8125 -17.21875 C 5.40625 -17.738281 7.378906 -18 8.734375 -18 Z M 8.734375 -18 "/></g></g></g><g fill="#144056" fill-opacity="1"><g transform="translate(208.885156, 44.599165)"><g><path d="M 1.375 0 Z M 20.828125 -23.640625 L 20.828125 0 L 1.375 0 L 1.375 -5.390625 L 5.671875 -5.390625 L 5.671875 -19 L 11.578125 -19 L 11.578125 -5.390625 L 14.90625 -5.390625 L 14.90625 -23.640625 Z M 12.859375 10.265625 L 4.984375 11.8125 L 4.578125 9.859375 L 6.078125 9.453125 C 5.597656 9.054688 5.238281 8.59375 5 8.0625 C 4.757812 7.539062 4.640625 7.003906 4.640625 6.453125 C 4.640625 5.441406 5 4.570312 5.71875 3.84375 C 6.445312 3.113281 7.382812 2.75 8.53125 2.75 C 9.46875 2.75 10.40625 3.023438 11.34375 3.578125 L 10.828125 6.109375 C 10.691406 6.015625 10.503906 5.914062 10.265625 5.8125 C 10.023438 5.71875 9.753906 5.671875 9.453125 5.671875 C 8.972656 5.671875 8.582031 5.828125 8.28125 6.140625 C 7.988281 6.460938 7.84375 6.84375 7.84375 7.28125 C 7.84375 7.582031 7.914062 7.863281 8.0625 8.125 C 8.207031 8.382812 8.429688 8.597656 8.734375 8.765625 L 12.296875 7.828125 Z M 12.859375 10.265625 "/></g></g></g><g fill="#144056" fill-opacity="1"><g transform="translate(231.842439, 44.599165)"><g/></g></g><g fill="#144056" fill-opacity="1"><g transform="translate(239.403218, 44.599165)"><g><path d="M 16.21875 0 L 9.65625 0 C 9.582031 2.613281 9.066406 4.679688 8.109375 6.203125 C 7.148438 7.722656 5.726562 8.484375 3.84375 8.484375 C 3.34375 8.484375 2.519531 8.453125 1.375 8.390625 L 1.375 3.0625 L 1.890625 3.09375 C 3.128906 3.09375 3.75 2.15625 3.75 0.28125 L 3.75 -17.21875 L 9.65625 -17.21875 L 9.65625 -5.390625 L 16.21875 -5.390625 Z M 16.21875 0 "/></g></g></g><g fill="#144056" fill-opacity="1"><g transform="translate(255.624488, 44.599165)"><g><path d="M 0 0 Z M 16.21875 -5.390625 L 16.21875 0 L 0 0 L 0 -5.390625 L 5.125 -5.390625 L 5.125 -17.1875 L 11.03125 -17.1875 L 11.03125 -5.390625 Z M 3.015625 2.75 L 7.171875 2.75 L 7.171875 7.96875 L 3.015625 7.96875 Z M 8.859375 2.75 L 13.015625 2.75 L 13.015625 7.96875 L 8.859375 7.96875 Z M 8.859375 2.75 "/></g></g></g><g fill="#144056" fill-opacity="1"><g transform="translate(271.845758, 44.599165)"><g><path d="M 0 0 Z M 21.609375 -5.390625 L 21.609375 0 L 0 0 L 0 -5.390625 L 12.40625 -5.390625 L 12.40625 -9.96875 C 12.40625 -10.882812 12.253906 -11.546875 11.953125 -11.953125 C 11.660156 -12.367188 11.046875 -12.578125 10.109375 -12.578125 C 9.734375 -12.554688 9.007812 -12.546875 7.9375 -12.546875 L 2.71875 -12.546875 L 2.578125 -16.359375 C 3.742188 -16.703125 5.234375 -16.976562 7.046875 -17.1875 C 8.859375 -17.40625 10.425781 -17.515625 11.75 -17.515625 C 13.46875 -17.515625 14.800781 -17.296875 15.75 -16.859375 C 16.707031 -16.429688 17.367188 -15.820312 17.734375 -15.03125 C 18.097656 -14.238281 18.289062 -13.222656 18.3125 -11.984375 L 18.3125 -5.390625 Z M 8.25 -25.90625 L 13.578125 -25.90625 L 13.578125 -20.375 L 8.25 -20.375 Z M 8.25 -25.90625 "/></g></g></g><g fill="#144056" fill-opacity="1"><g transform="translate(293.462658, 44.599165)"><g><path d="M 10.140625 -23.640625 L 10.140625 0 L 0 0 L 0 -5.390625 L 4.21875 -5.390625 L 4.21875 -23.640625 Z M 10.140625 -23.640625 "/></g></g></g><g fill="#144056" fill-opacity="1"><g transform="translate(306.109805, 44.599165)"><g><path d="M 2.515625 -23.640625 L 8.421875 -23.640625 L 8.421875 0 L 2.515625 0 Z M 2.515625 -23.640625 "/></g></g></g><g fill="#144056" fill-opacity="1"><g transform="translate(317.622796, 44.599165)"><g/></g></g><g fill="#144056" fill-opacity="1"><g transform="translate(325.183592, 44.599165)"><g><path d="M 1.375 0 Z M 12.125 8.515625 C 10.019531 8.515625 8.144531 8.117188 6.5 7.328125 C 4.863281 6.546875 3.597656 5.488281 2.703125 4.15625 C 1.816406 2.832031 1.375 1.398438 1.375 -0.140625 C 1.375 -1.421875 1.753906 -4.535156 2.515625 -9.484375 L 8.046875 -9.171875 C 7.835938 -7.773438 7.617188 -6.171875 7.390625 -4.359375 C 7.160156 -2.554688 7.046875 -1.378906 7.046875 -0.828125 C 7.046875 -0.160156 7.242188 0.472656 7.640625 1.078125 C 8.046875 1.691406 8.617188 2.1875 9.359375 2.5625 C 10.109375 2.9375 10.953125 3.125 11.890625 3.125 C 12.898438 3.125 13.753906 2.921875 14.453125 2.515625 C 15.148438 2.117188 15.664062 1.625 16 1.03125 C 16.332031 0.4375 16.5 -0.144531 16.5 -0.71875 L 16.5 -17.1875 L 22.40625 -17.1875 L 22.40625 -0.109375 C 22.40625 1.335938 22.015625 2.71875 21.234375 4.03125 C 20.453125 5.351562 19.28125 6.429688 17.71875 7.265625 C 16.164062 8.097656 14.300781 8.515625 12.125 8.515625 Z M 9.453125 -22.71875 L 14.78125 -22.71875 L 14.78125 -17.1875 L 9.453125 -17.1875 Z M 9.453125 -22.71875 "/></g></g></g><g fill="#144056" fill-opacity="1"><g transform="translate(349.343731, 44.599165)"><g><path d="M 18.59375 -3.609375 C 18.59375 -1.910156 18.484375 -0.257812 18.265625 1.34375 C 18.046875 2.945312 17.34375 4.539062 16.15625 6.125 C 14.976562 7.71875 13.109375 8.515625 10.546875 8.515625 C 9.054688 8.515625 6.878906 8.265625 4.015625 7.765625 L 4.015625 2.40625 C 7.160156 2.882812 9.144531 3.125 9.96875 3.125 C 10.96875 3.125 11.640625 2.882812 11.984375 2.40625 C 12.328125 1.925781 12.488281 1.125 12.46875 0 L 9.171875 0 C 6.972656 0 5.304688 -0.421875 4.171875 -1.265625 C 3.035156 -2.117188 2.296875 -3.132812 1.953125 -4.3125 C 1.609375 -5.488281 1.4375 -6.8125 1.4375 -8.28125 C 1.4375 -11.050781 1.804688 -13.132812 2.546875 -14.53125 C 3.296875 -15.925781 4.25 -16.835938 5.40625 -17.265625 C 6.5625 -17.691406 7.976562 -17.90625 9.65625 -17.90625 C 11.257812 -17.90625 12.863281 -17.800781 14.46875 -17.59375 C 16.070312 -17.382812 17.445312 -17.15625 18.59375 -16.90625 Z M 7.359375 -8.65625 C 7.359375 -7.582031 7.578125 -6.769531 8.015625 -6.21875 C 8.460938 -5.664062 9.328125 -5.390625 10.609375 -5.390625 L 12.671875 -5.390625 L 12.671875 -12.4375 C 11.941406 -12.476562 11.269531 -12.5 10.65625 -12.5 C 10.0625 -12.5 9.535156 -12.429688 9.078125 -12.296875 C 8.617188 -12.160156 8.21875 -11.8125 7.875 -11.25 C 7.53125 -10.6875 7.359375 -9.820312 7.359375 -8.65625 Z M 7.359375 -8.65625 "/></g></g></g><g fill="#144056" fill-opacity="1"><g transform="translate(369.414146, 44.599165)"><g><path d="M 1.375 0 Z M 16.21875 0 L 9.65625 0 C 9.582031 2.613281 9.066406 4.679688 8.109375 6.203125 C 7.148438 7.722656 5.726562 8.484375 3.84375 8.484375 C 3.34375 8.484375 2.519531 8.453125 1.375 8.390625 L 1.375 3.0625 L 1.890625 3.09375 C 3.128906 3.09375 3.75 2.15625 3.75 0.28125 L 3.75 -17.21875 L 9.65625 -17.21875 L 9.65625 -5.390625 L 16.21875 -5.390625 Z M 4.046875 -25.90625 L 9.375 -25.90625 L 9.375 -20.375 L 4.046875 -20.375 Z M 4.046875 -25.90625 "/></g></g></g><g fill="#144056" fill-opacity="1"><g transform="translate(385.635448, 44.599165)"><g><path d="M 13.640625 -17.453125 C 16.367188 -17.453125 18.382812 -17.070312 19.6875 -16.3125 C 20.988281 -15.5625 21.8125 -14.585938 22.15625 -13.390625 C 22.5 -12.203125 22.671875 -10.601562 22.671875 -8.59375 L 22.671875 0 L 0 0 L 0 -5.390625 L 5.125 -5.390625 C 4.820312 -6.671875 4.671875 -7.757812 4.671875 -8.65625 C 4.671875 -9.738281 4.820312 -10.988281 5.125 -12.40625 C 5.4375 -13.820312 5.78125 -15.082031 6.15625 -16.1875 C 6.789062 -16.507812 7.769531 -16.800781 9.09375 -17.0625 C 10.425781 -17.320312 11.941406 -17.453125 13.640625 -17.453125 Z M 10.34375 -8.65625 C 10.34375 -8.082031 10.394531 -7.5 10.5 -6.90625 C 10.601562 -6.3125 10.710938 -5.804688 10.828125 -5.390625 L 16.765625 -5.390625 L 16.765625 -8.734375 C 16.765625 -9.535156 16.710938 -10.148438 16.609375 -10.578125 C 16.503906 -11.015625 16.1875 -11.382812 15.65625 -11.6875 C 15.132812 -12 14.300781 -12.15625 13.15625 -12.15625 C 12.289062 -12.15625 11.46875 -12.066406 10.6875 -11.890625 C 10.457031 -10.628906 10.34375 -9.550781 10.34375 -8.65625 Z M 10.34375 -8.65625 "/></g></g></g><g fill="#144056" fill-opacity="1"><g transform="translate(409.829937, 44.599165)"><g/></g></g><g fill="#144056" fill-opacity="1"><g transform="translate(417.390733, 44.599165)"><g><path d="M 1.375 0 Z M 23.921875 -5.390625 L 23.921875 0 L 11.296875 0 C 8.847656 0 6.9375 -0.203125 5.5625 -0.609375 C 4.1875 -1.023438 3.144531 -1.878906 2.4375 -3.171875 C 1.726562 -4.472656 1.375 -6.425781 1.375 -9.03125 C 1.375 -11.457031 1.707031 -13.269531 2.375 -14.46875 C 3.039062 -15.675781 4.09375 -16.484375 5.53125 -16.890625 C 6.976562 -17.304688 9.070312 -17.515625 11.8125 -17.515625 C 13.351562 -17.515625 15.039062 -17.460938 16.875 -17.359375 C 18.707031 -17.265625 19.929688 -17.160156 20.546875 -17.046875 L 20.546875 -5.390625 Z M 7.28125 -9 C 7.28125 -7.90625 7.4375 -7.097656 7.75 -6.578125 C 8.0625 -6.066406 8.488281 -5.738281 9.03125 -5.59375 C 9.582031 -5.457031 10.375 -5.390625 11.40625 -5.390625 L 14.640625 -5.390625 L 14.640625 -12.03125 C 13.191406 -12.09375 12.226562 -12.125 11.75 -12.125 C 10.539062 -12.125 9.632812 -12.0625 9.03125 -11.9375 C 8.4375 -11.8125 7.992188 -11.523438 7.703125 -11.078125 C 7.421875 -10.628906 7.28125 -9.9375 7.28125 -9 Z M 6.796875 -25.59375 L 10.953125 -25.59375 L 10.953125 -20.375 L 6.796875 -20.375 Z M 12.640625 -25.59375 L 16.796875 -25.59375 L 16.796875 -20.375 L 12.640625 -20.375 Z M 12.640625 -25.59375 "/></g></g></g><g fill="#144056" fill-opacity="1"><g transform="translate(441.310199, 44.599165)"><g><path d="M 13.78125 -17.859375 C 15.9375 -17.859375 17.550781 -17.265625 18.625 -16.078125 C 19.695312 -14.890625 20.375 -13.648438 20.65625 -12.359375 C 20.945312 -11.078125 21.09375 -9.992188 21.09375 -9.109375 L 21.09375 0 L 0 0 L 0 -5.390625 L 15.1875 -5.390625 L 15.1875 -9.140625 C 15.1875 -9.921875 15.039062 -10.5625 14.75 -11.0625 C 14.46875 -11.5625 14.125 -11.925781 13.71875 -12.15625 C 13.320312 -12.382812 12.972656 -12.488281 12.671875 -12.46875 L 3.53125 -12.46875 L 0.75 -16.21875 L 2.984375 -20.578125 C 3.460938 -21.566406 4.070312 -22.539062 4.8125 -23.5 C 5.5625 -24.457031 6.222656 -25.210938 6.796875 -25.765625 L 11.234375 -23.265625 C 11.046875 -23.054688 10.617188 -22.414062 9.953125 -21.34375 C 9.296875 -20.28125 8.691406 -19.222656 8.140625 -18.171875 L 7.96875 -17.859375 Z M 11.234375 -23.265625 Z M 11.234375 -23.265625 "/></g></g></g><g fill="#144056" fill-opacity="1"><g transform="translate(464.473709, 44.599165)"><g><path d="M 16.21875 0 L 9.65625 0 C 9.582031 2.613281 9.066406 4.679688 8.109375 6.203125 C 7.148438 7.722656 5.726562 8.484375 3.84375 8.484375 C 3.34375 8.484375 2.519531 8.453125 1.375 8.390625 L 1.375 3.0625 L 1.890625 3.09375 C 3.128906 3.09375 3.75 2.15625 3.75 0.28125 L 3.75 -17.21875 L 9.65625 -17.21875 L 9.65625 -5.390625 L 16.21875 -5.390625 Z M 16.21875 0 "/></g></g></g><g fill="#144056" fill-opacity="1"><g transform="translate(480.694978, 44.599165)"><g><path d="M 0 0 Z M 27.5625 -17.25 C 28.132812 -12.96875 28.421875 -10.398438 28.421875 -9.546875 L 28.421875 0 L 20.890625 0 C 20.066406 0 19.269531 -0.132812 18.5 -0.40625 C 17.726562 -0.6875 17.195312 -0.929688 16.90625 -1.140625 C 15.894531 -0.378906 14.726562 0 13.40625 0 L 0 0 L 0 -5.390625 L 5.046875 -5.390625 L 5.046875 -15.46875 L 10.953125 -15.46875 L 10.953125 -5.390625 L 11.34375 -5.390625 C 12.09375 -5.390625 12.695312 -5.664062 13.15625 -6.21875 C 13.613281 -6.769531 13.84375 -7.515625 13.84375 -8.453125 L 13.84375 -15.46875 L 19.75 -15.46875 L 19.75 -8.453125 C 19.75 -7.535156 19.660156 -6.617188 19.484375 -5.703125 C 19.804688 -5.492188 20.179688 -5.390625 20.609375 -5.390625 L 22.5 -5.390625 L 22.5 -8.28125 L 22.546875 -10.140625 C 22.566406 -10.484375 22.578125 -11.007812 22.578125 -11.71875 C 22.578125 -12.925781 22.484375 -14.691406 22.296875 -17.015625 Z M 15.046875 -30.40625 L 18.828125 -30.40625 L 18.828125 -25.875 L 15.046875 -25.875 Z M 11.921875 -25.328125 L 16.078125 -25.328125 L 16.078125 -20.375 L 11.921875 -20.375 Z M 17.765625 -25.328125 L 21.921875 -25.328125 L 21.921875 -20.375 L 17.765625 -20.375 Z M 17.765625 -25.328125 "/></g></g></g></g></g></g></g></g></g><g mask="url(#66deabfb40)"><g transform="matrix(1, 0, 0, 1, 267, 412)"><g clip-path="url(#cb439139ea)"><g clip-path="url(#8e6e6b3da7)"><g transform="matrix(1, 0, 0, 1, 0, 0.000000000000056843)"><g clip-path="url(#64ec7c4277)"><g fill="#144056" fill-opacity="1"><g transform="translate(1.223621, 30.734791)"><g><path d="M 18.765625 -15.703125 L 18.765625 0 L 14.609375 0 L 14.609375 -10.984375 L 14.359375 -10.984375 L 12.171875 -0.765625 L 8.15625 -0.765625 L 5.953125 -10.984375 L 5.734375 -10.984375 L 5.734375 0 L 1.5625 0 L 1.5625 -15.703125 L 8.5625 -15.703125 L 10.171875 -6.359375 L 11.78125 -15.703125 Z M 18.765625 -15.703125 "/></g></g></g><g fill="#144056" fill-opacity="1"><g transform="translate(23.143545, 30.734791)"><g><path d="M 7.546875 0.296875 C 5.160156 0.296875 3.441406 -0.347656 2.390625 -1.640625 C 1.335938 -2.929688 0.8125 -4.976562 0.8125 -7.78125 C 0.8125 -10.613281 1.332031 -12.691406 2.375 -14.015625 C 3.425781 -15.347656 5.148438 -16.015625 7.546875 -16.015625 C 9.953125 -16.015625 11.675781 -15.347656 12.71875 -14.015625 C 13.757812 -12.691406 14.28125 -10.625 14.28125 -7.8125 C 14.28125 -5.113281 13.765625 -3.085938 12.734375 -1.734375 C 11.710938 -0.378906 9.984375 0.296875 7.546875 0.296875 Z M 7.546875 -3.296875 C 8.160156 -3.296875 8.640625 -3.445312 8.984375 -3.75 C 9.335938 -4.050781 9.59375 -4.523438 9.75 -5.171875 C 9.90625 -5.816406 9.984375 -6.695312 9.984375 -7.8125 C 9.984375 -9.457031 9.800781 -10.632812 9.4375 -11.34375 C 9.082031 -12.050781 8.453125 -12.40625 7.546875 -12.40625 C 6.660156 -12.40625 6.035156 -12.046875 5.671875 -11.328125 C 5.304688 -10.617188 5.125 -9.4375 5.125 -7.78125 C 5.125 -6.320312 5.273438 -5.207031 5.578125 -4.4375 C 5.890625 -3.675781 6.546875 -3.296875 7.546875 -3.296875 Z M 7.546875 -3.296875 "/></g></g></g><g fill="#144056" fill-opacity="1"><g transform="translate(39.922353, 30.734791)"><g><path d="M 0.9375 -3.265625 L 6.359375 -11.734375 L 6.359375 -12.078125 L 0.9375 -12.078125 L 0.9375 -15.703125 L 11.453125 -15.703125 L 11.453125 -12.4375 L 6.03125 -4 L 6.03125 -3.625 L 11.453125 -3.625 L 11.453125 -0.015625 L 0.9375 -0.015625 Z M 0.9375 -3.265625 "/></g></g></g><g fill="#144056" fill-opacity="1"><g transform="translate(53.943668, 30.734791)"><g><path d="M 7.546875 0.296875 C 5.160156 0.296875 3.441406 -0.347656 2.390625 -1.640625 C 1.335938 -2.929688 0.8125 -4.976562 0.8125 -7.78125 C 0.8125 -10.613281 1.332031 -12.691406 2.375 -14.015625 C 3.425781 -15.347656 5.148438 -16.015625 7.546875 -16.015625 C 9.953125 -16.015625 11.675781 -15.347656 12.71875 -14.015625 C 13.757812 -12.691406 14.28125 -10.625 14.28125 -7.8125 C 14.28125 -5.113281 13.765625 -3.085938 12.734375 -1.734375 C 11.710938 -0.378906 9.984375 0.296875 7.546875 0.296875 Z M 7.546875 -3.296875 C 8.160156 -3.296875 8.640625 -3.445312 8.984375 -3.75 C 9.335938 -4.050781 9.59375 -4.523438 9.75 -5.171875 C 9.90625 -5.816406 9.984375 -6.695312 9.984375 -7.8125 C 9.984375 -9.457031 9.800781 -10.632812 9.4375 -11.34375 C 9.082031 -12.050781 8.453125 -12.40625 7.546875 -12.40625 C 6.660156 -12.40625 6.035156 -12.046875 5.671875 -11.328125 C 5.304688 -10.617188 5.125 -9.4375 5.125 -7.78125 C 5.125 -6.320312 5.273438 -5.207031 5.578125 -4.4375 C 5.890625 -3.675781 6.546875 -3.296875 7.546875 -3.296875 Z M 7.546875 -3.296875 "/></g></g></g><g fill="#144056" fill-opacity="1"><g transform="translate(70.652373, 30.734791)"><g><path d="M 7.546875 0.296875 C 5.160156 0.296875 3.441406 -0.347656 2.390625 -1.640625 C 1.335938 -2.929688 0.8125 -4.976562 0.8125 -7.78125 C 0.8125 -10.613281 1.332031 -12.691406 2.375 -14.015625 C 3.425781 -15.347656 5.148438 -16.015625 7.546875 -16.015625 C 9.953125 -16.015625 11.675781 -15.347656 12.71875 -14.015625 C 13.757812 -12.691406 14.28125 -10.625 14.28125 -7.8125 C 14.28125 -5.113281 13.765625 -3.085938 12.734375 -1.734375 C 11.710938 -0.378906 9.984375 0.296875 7.546875 0.296875 Z M 7.546875 -3.296875 C 8.160156 -3.296875 8.640625 -3.445312 8.984375 -3.75 C 9.335938 -4.050781 9.59375 -4.523438 9.75 -5.171875 C 9.90625 -5.816406 9.984375 -6.695312 9.984375 -7.8125 C 9.984375 -9.457031 9.800781 -10.632812 9.4375 -11.34375 C 9.082031 -12.050781 8.453125 -12.40625 7.546875 -12.40625 C 6.660156 -12.40625 6.035156 -12.046875 5.671875 -11.328125 C 5.304688 -10.617188 5.125 -9.4375 5.125 -7.78125 C 5.125 -6.320312 5.273438 -5.207031 5.578125 -4.4375 C 5.890625 -3.675781 6.546875 -3.296875 7.546875 -3.296875 Z M 7.546875 -3.296875 "/></g></g></g><g fill="#144056" fill-opacity="1"><g transform="translate(87.361077, 30.734791)"><g><path d="M 14.90625 -15.703125 L 14.90625 0 L 8.25 0 L 5.734375 -11.984375 L 5.734375 0 L 1.5625 0 L 1.5625 -15.703125 L 8.390625 -15.703125 L 10.703125 -4.09375 L 10.703125 -15.703125 Z M 14.90625 -15.703125 "/></g></g></g><g fill="#144056" fill-opacity="1"><g transform="translate(105.4018, 30.734791)"><g/></g></g><g fill="#144056" fill-opacity="1"><g transform="translate(112.132088, 30.734791)"><g><path d="M 9.375 -2.015625 L 4.796875 -2.015625 L 4.484375 0 L 0.28125 0 L 3.296875 -15.703125 L 10.875 -15.703125 L 13.890625 0 L 9.671875 0 Z M 7.59375 -12.296875 L 6.5625 -12.296875 L 5.5 -5.609375 L 8.671875 -5.609375 Z M 7.59375 -12.296875 "/></g></g></g><g fill="#144056" fill-opacity="1"><g transform="translate(127.882676, 30.734791)"><g><path d="M 10.703125 -3.671875 L 10.703125 0 L 1.5625 0 L 1.5625 -15.703125 L 5.734375 -15.703125 L 5.734375 -3.671875 Z M 10.703125 -3.671875 "/></g></g></g><g fill="#144056" fill-opacity="1"><g transform="translate(139.660562, 30.734791)"><g><path d="M 1.125 -7.90625 L 7.921875 -7.90625 L 7.921875 -4.25 L 1.125 -4.25 Z M 1.125 -7.90625 "/></g></g></g><g fill="#144056" fill-opacity="1"><g transform="translate(150.316786, 30.734791)"><g><path d="M 11.125 -7.875 L 13.890625 0 L 9.09375 0 L 7.40625 -5.78125 L 5.734375 -5.59375 L 5.734375 0 L 1.5625 0 L 1.5625 -15.703125 L 5.734375 -15.703125 L 5.734375 -9.1875 L 7.453125 -9.390625 L 9.140625 -15.703125 L 13.890625 -15.703125 Z M 11.125 -7.875 "/></g></g></g><g fill="#144056" fill-opacity="1"><g transform="translate(166.137494, 30.734791)"><g><path d="M 14.3125 -15.703125 L 14.3125 0 L 10.09375 0 L 10.09375 -6.09375 L 5.734375 -6.09375 L 5.734375 0 L 1.5625 0 L 1.5625 -15.703125 L 5.734375 -15.703125 L 5.734375 -9.703125 L 10.09375 -9.703125 L 10.09375 -15.703125 Z M 14.3125 -15.703125 "/></g></g></g><g fill="#144056" fill-opacity="1"><g transform="translate(183.570635, 30.734791)"><g><path d="M 9.375 -2.015625 L 4.796875 -2.015625 L 4.484375 0 L 0.28125 0 L 3.296875 -15.703125 L 10.875 -15.703125 L 13.890625 0 L 9.671875 0 Z M 7.59375 -12.296875 L 6.5625 -12.296875 L 5.5 -5.609375 L 8.671875 -5.609375 Z M 7.59375 -12.296875 "/></g></g></g><g fill="#144056" fill-opacity="1"><g transform="translate(199.321224, 30.734791)"><g><path d="M 1.5625 -15.703125 L 5.734375 -15.703125 L 5.734375 0 L 1.5625 0 Z M 1.5625 -15.703125 "/></g></g></g><g fill="#144056" fill-opacity="1"><g transform="translate(208.224806, 30.734791)"><g><path d="M 1.5625 -15.703125 L 7.859375 -15.703125 C 9.816406 -15.703125 11.289062 -15.242188 12.28125 -14.328125 C 13.269531 -13.410156 13.765625 -12.054688 13.765625 -10.265625 C 13.765625 -8.472656 13.125 -6.96875 11.84375 -5.75 L 13.5625 0 L 9 0 L 7.859375 -4.75 L 5.734375 -4.75 L 5.734375 0 L 1.5625 0 Z M 7.921875 -8.296875 C 8.421875 -8.296875 8.804688 -8.484375 9.078125 -8.859375 C 9.347656 -9.242188 9.484375 -9.710938 9.484375 -10.265625 C 9.484375 -10.796875 9.332031 -11.242188 9.03125 -11.609375 C 8.726562 -11.984375 8.335938 -12.171875 7.859375 -12.171875 L 5.734375 -12.171875 L 5.734375 -8.296875 Z M 7.921875 -8.296875 "/></g></g></g><g fill="#144056" fill-opacity="1"><g transform="translate(224.372665, 30.734791)"><g/></g></g><g fill="#144056" fill-opacity="1"><g transform="translate(231.102953, 30.734791)"><g><path d="M 5.734375 -12.078125 L 5.734375 -8.515625 L 10.734375 -8.515625 L 10.734375 -4.890625 L 5.734375 -4.890625 L 5.734375 0 L 1.5625 0 L 1.5625 -15.703125 L 12.015625 -15.703125 L 12.015625 -12.078125 Z M 5.734375 -12.078125 "/></g></g></g><g fill="#144056" fill-opacity="1"><g transform="translate(244.890558, 30.734791)"><g><path d="M 9.375 -2.015625 L 4.796875 -2.015625 L 4.484375 0 L 0.28125 0 L 3.296875 -15.703125 L 10.875 -15.703125 L 13.890625 0 L 9.671875 0 Z M 7.59375 -12.296875 L 6.5625 -12.296875 L 5.5 -5.609375 L 8.671875 -5.609375 Z M 7.59375 -12.296875 "/></g></g></g><g fill="#144056" fill-opacity="1"><g transform="translate(260.477556, 30.734791)"><g><path d="M 7.21875 0.296875 C 5.519531 0.296875 4.210938 0.0078125 3.296875 -0.5625 C 2.390625 -1.132812 1.765625 -1.992188 1.421875 -3.140625 C 1.078125 -4.285156 0.90625 -5.816406 0.90625 -7.734375 C 0.90625 -9.984375 1.101562 -11.695312 1.5 -12.875 C 1.90625 -14.0625 2.523438 -14.878906 3.359375 -15.328125 C 4.203125 -15.785156 5.375 -16.015625 6.875 -16.015625 C 8.394531 -16.015625 10.0625 -15.78125 11.875 -15.3125 L 11.75 -12.03125 C 10.289062 -12.238281 9.109375 -12.34375 8.203125 -12.34375 C 7.378906 -12.34375 6.75 -12.210938 6.3125 -11.953125 C 5.875 -11.703125 5.570312 -11.296875 5.40625 -10.734375 C 5.25 -10.179688 5.171875 -9.398438 5.171875 -8.390625 C 5.171875 -7.878906 5.175781 -7.484375 5.1875 -7.203125 C 5.238281 -6.046875 5.332031 -5.207031 5.46875 -4.6875 C 5.613281 -4.175781 5.863281 -3.828125 6.21875 -3.640625 C 6.570312 -3.453125 7.148438 -3.359375 7.953125 -3.359375 C 9.023438 -3.359375 10.289062 -3.445312 11.75 -3.625 L 11.828125 -0.25 C 10.140625 0.113281 8.601562 0.296875 7.21875 0.296875 Z M 7.21875 0.296875 "/></g></g></g><g fill="#144056" fill-opacity="1"><g transform="translate(274.73255, 30.734791)"><g><path d="M 1.5625 -15.703125 L 5.734375 -15.703125 L 5.734375 0 L 1.5625 0 Z M 1.5625 -15.703125 "/></g></g></g><g fill="#144056" fill-opacity="1"><g transform="translate(283.636132, 30.734791)"><g><path d="M 10.703125 -3.671875 L 10.703125 0 L 1.5625 0 L 1.5625 -15.703125 L 5.734375 -15.703125 L 5.734375 -3.671875 Z M 10.703125 -3.671875 "/></g></g></g><g fill="#144056" fill-opacity="1"><g transform="translate(296.13847, 30.734791)"><g><path d="M 1.5625 -15.703125 L 5.734375 -15.703125 L 5.734375 0 L 1.5625 0 Z M 1.5625 -15.703125 "/></g></g></g><g fill="#144056" fill-opacity="1"><g transform="translate(305.042053, 30.734791)"><g><path d="M 4.0625 -12.03125 L 0.296875 -12.03125 L 0.296875 -15.703125 L 11.984375 -15.703125 L 11.984375 -12.03125 L 8.28125 -12.03125 L 8.28125 0 L 4.0625 0 Z M 4.0625 -12.03125 "/></g></g></g><g fill="#144056" fill-opacity="1"><g transform="translate(318.92316, 30.734791)"><g><path d="M 4.578125 -6.171875 L -0.15625 -15.703125 L 4.4375 -15.703125 L 6.640625 -10.1875 L 8.828125 -15.703125 L 13.4375 -15.703125 L 8.765625 -6.171875 L 8.765625 0 L 4.578125 0 Z M 4.578125 -6.171875 "/></g></g></g><g fill="#144056" fill-opacity="1"><g transform="translate(333.832518, 30.734791)"><g/></g></g><g fill="#144056" fill-opacity="1"><g transform="translate(340.56279, 30.734791)"><g><path d="M 18.765625 -15.703125 L 18.765625 0 L 14.609375 0 L 14.609375 -10.984375 L 14.359375 -10.984375 L 12.171875 -0.765625 L 8.15625 -0.765625 L 5.953125 -10.984375 L 5.734375 -10.984375 L 5.734375 0 L 1.5625 0 L 1.5625 -15.703125 L 8.5625 -15.703125 L 10.171875 -6.359375 L 11.78125 -15.703125 Z M 18.765625 -15.703125 "/></g></g></g><g fill="#144056" fill-opacity="1"><g transform="translate(362.482714, 30.734791)"><g><path d="M 9.375 -2.015625 L 4.796875 -2.015625 L 4.484375 0 L 0.28125 0 L 3.296875 -15.703125 L 10.875 -15.703125 L 13.890625 0 L 9.671875 0 Z M 7.59375 -12.296875 L 6.5625 -12.296875 L 5.5 -5.609375 L 8.671875 -5.609375 Z M 7.59375 -12.296875 "/></g></g></g><g fill="#144056" fill-opacity="1"><g transform="translate(378.233318, 30.734791)"><g><path d="M 14.90625 -15.703125 L 14.90625 0 L 8.25 0 L 5.734375 -11.984375 L 5.734375 0 L 1.5625 0 L 1.5625 -15.703125 L 8.390625 -15.703125 L 10.703125 -4.09375 L 10.703125 -15.703125 Z M 14.90625 -15.703125 "/></g></g></g><g fill="#144056" fill-opacity="1"><g transform="translate(396.274041, 30.734791)"><g><path d="M 7.53125 0.296875 C 5.8125 0.296875 4.472656 0.0195312 3.515625 -0.53125 C 2.554688 -1.09375 1.875 -1.96875 1.46875 -3.15625 C 1.0625 -4.351562 0.859375 -5.957031 0.859375 -7.96875 C 0.859375 -9.9375 1.078125 -11.503906 1.515625 -12.671875 C 1.953125 -13.835938 2.640625 -14.6875 3.578125 -15.21875 C 4.523438 -15.75 5.785156 -16.015625 7.359375 -16.015625 C 8.804688 -16.015625 10.410156 -15.847656 12.171875 -15.515625 L 13.046875 -15.328125 L 12.953125 -12.15625 C 11.328125 -12.28125 9.894531 -12.34375 8.65625 -12.34375 C 7.5625 -12.34375 6.757812 -12.117188 6.25 -11.671875 C 5.75 -11.234375 5.4375 -10.664062 5.3125 -9.96875 C 5.195312 -9.269531 5.140625 -8.304688 5.140625 -7.078125 C 5.140625 -6.066406 5.210938 -5.296875 5.359375 -4.765625 C 5.515625 -4.234375 5.789062 -3.851562 6.1875 -3.625 C 6.582031 -3.40625 7.160156 -3.296875 7.921875 -3.296875 L 8.921875 -3.296875 L 8.921875 -5.078125 L 8.328125 -5.078125 L 8.328125 -8.671875 L 13.046875 -8.671875 L 13.046875 -0.203125 C 10.546875 0.128906 8.707031 0.296875 7.53125 0.296875 Z M 7.53125 0.296875 "/></g></g></g><g fill="#144056" fill-opacity="1"><g transform="translate(412.071381, 30.734791)"><g><path d="M 5.734375 -12.078125 L 5.734375 -9.625 L 10.734375 -9.625 L 10.734375 -6.078125 L 5.734375 -6.078125 L 5.734375 -3.625 L 12.125 -3.625 L 12.125 0 L 1.5625 0 L 1.5625 -15.703125 L 12.125 -15.703125 L 12.125 -12.078125 Z M 5.734375 -12.078125 "/></g></g></g><g fill="#144056" fill-opacity="1"><g transform="translate(426.630158, 30.734791)"><g><path d="M 18.765625 -15.703125 L 18.765625 0 L 14.609375 0 L 14.609375 -10.984375 L 14.359375 -10.984375 L 12.171875 -0.765625 L 8.15625 -0.765625 L 5.953125 -10.984375 L 5.734375 -10.984375 L 5.734375 0 L 1.5625 0 L 1.5625 -15.703125 L 8.5625 -15.703125 L 10.171875 -6.359375 L 11.78125 -15.703125 Z M 18.765625 -15.703125 "/></g></g></g><g fill="#144056" fill-opacity="1"><g transform="translate(448.550082, 30.734791)"><g><path d="M 9.375 -2.015625 L 4.796875 -2.015625 L 4.484375 0 L 0.28125 0 L 3.296875 -15.703125 L 10.875 -15.703125 L 13.890625 0 L 9.671875 0 Z M 7.59375 -12.296875 L 6.5625 -12.296875 L 5.5 -5.609375 L 8.671875 -5.609375 Z M 7.59375 -12.296875 "/></g></g></g><g fill="#144056" fill-opacity="1"><g transform="translate(464.300656, 30.734791)"><g><path d="M 5.734375 -12.078125 L 5.734375 -9.625 L 10.734375 -9.625 L 10.734375 -6.078125 L 5.734375 -6.078125 L 5.734375 -3.625 L 12.125 -3.625 L 12.125 0 L 1.5625 0 L 1.5625 -15.703125 L 12.125 -15.703125 L 12.125 -12.078125 Z M 5.734375 -12.078125 "/></g></g></g><g fill="#144056" fill-opacity="1"><g transform="translate(478.859464, 30.734791)"><g><path d="M 14.90625 -15.703125 L 14.90625 0 L 8.25 0 L 5.734375 -11.984375 L 5.734375 0 L 1.5625 0 L 1.5625 -15.703125 L 8.390625 -15.703125 L 10.703125 -4.09375 L 10.703125 -15.703125 Z M 14.90625 -15.703125 "/></g></g></g><g fill="#144056" fill-opacity="1"><g transform="translate(496.900187, 30.734791)"><g><path d="M 4.0625 -12.03125 L 0.296875 -12.03125 L 0.296875 -15.703125 L 11.984375 -15.703125 L 11.984375 -12.03125 L 8.28125 -12.03125 L 8.28125 0 L 4.0625 0 Z M 4.0625 -12.03125 "/></g></g></g></g></g></g></g></g></g></svg>