<svg xmlns="http://www.w3.org/2000/svg" xmlns:xlink="http://www.w3.org/1999/xlink" width="1080" zoomAndPan="magnify" viewBox="0 0 810 809.999993" height="1080" preserveAspectRatio="xMidYMid meet" version="1.0"><defs><g/><clipPath id="df0f46972d"><path d="M 114.664062 256.101562 L 270 256.101562 L 270 378 L 114.664062 378 Z M 114.664062 256.101562 " clip-rule="nonzero"/></clipPath><clipPath id="7b486af70f"><path d="M 244.761719 264.492188 L 170.722656 333.46875 C 170.441406 333.871094 169.992188 334.421875 169.3125 334.929688 C 168.5625 335.492188 168.214844 335.839844 167.691406 335.820312 C 166.941406 335.78125 166.433594 335.058594 166.28125 334.832031 L 136.832031 307.128906 C 136.632812 306.921875 136.34375 306.621094 135.964844 306.289062 C 135.53125 305.910156 131.152344 302.210938 125.511719 302.878906 C 120.851562 303.429688 116.761719 306.78125 114.882812 311.480469 L 114.882812 369.191406 C 114.882812 369.242188 114.882812 369.308594 114.882812 369.398438 C 114.933594 371.878906 116.972656 373.691406 117.882812 374.5 C 119.53125 375.96875 122.511719 377.691406 126.074219 377.570312 C 130.714844 377.410156 135.011719 374.171875 137.082031 369.351562 L 137.082031 339.050781 L 160.3125 359.261719 C 160.453125 359.421875 160.683594 359.660156 160.964844 359.921875 C 163.503906 362.199219 166.894531 362.160156 167.941406 362.140625 C 172.773438 362.070312 176.082031 358.832031 176.824219 358.058594 L 198.402344 338.332031 L 198.402344 368.71875 C 198.414062 368.859375 198.433594 369.03125 198.472656 369.242188 C 199.214844 373.449219 204.324219 377.808594 209.742188 377.699219 C 215.203125 377.589844 220.292969 372.960938 221.101562 366.582031 L 221.03125 348.242188 L 250.582031 375.230469 C 250.753906 375.410156 250.984375 375.628906 251.273438 375.859375 C 254.753906 378.589844 261.894531 378.191406 265.902344 373.929688 C 270.332031 369.242188 268.472656 362.46875 268.371094 362.121094 L 268.242188 361.671875 L 257.941406 351.339844 L 221.753906 317.152344 L 267.753906 273.339844 C 267.941406 273.191406 268.164062 272.992188 268.382812 272.730469 C 270.871094 269.742188 269.523438 262.660156 265.273438 259.082031 C 261.59375 255.980469 255.902344 255.660156 251.132812 258.351562 L 244.753906 264.492188 Z M 244.761719 264.492188 " clip-rule="nonzero"/></clipPath><clipPath id="45ae486840"><path d="M 0.71875 0.101562 L 156 0.101562 L 156 122 L 0.71875 122 Z M 0.71875 0.101562 " clip-rule="nonzero"/></clipPath><clipPath id="03b355111c"><path d="M 130.761719 8.492188 L 56.722656 77.46875 C 56.441406 77.871094 55.992188 78.421875 55.3125 78.929688 C 54.5625 79.492188 54.214844 79.839844 53.691406 79.820312 C 52.941406 79.78125 52.433594 79.058594 52.28125 78.832031 L 22.832031 51.128906 C 22.632812 50.921875 22.34375 50.621094 21.964844 50.289062 C 21.53125 49.910156 17.152344 46.210938 11.511719 46.878906 C 6.851562 47.429688 2.761719 50.78125 0.882812 55.480469 L 0.882812 113.191406 C 0.882812 113.242188 0.882812 113.308594 0.882812 113.398438 C 0.933594 115.878906 2.972656 117.691406 3.882812 118.5 C 5.53125 119.96875 8.511719 121.691406 12.074219 121.570312 C 16.714844 121.410156 21.011719 118.171875 23.082031 113.351562 L 23.082031 83.050781 L 46.3125 103.261719 C 46.453125 103.421875 46.683594 103.660156 46.964844 103.921875 C 49.503906 106.199219 52.894531 106.160156 53.941406 106.140625 C 58.773438 106.070312 62.082031 102.832031 62.824219 102.058594 L 84.402344 82.332031 L 84.402344 112.71875 C 84.414062 112.859375 84.433594 113.03125 84.472656 113.242188 C 85.214844 117.449219 90.324219 121.808594 95.742188 121.699219 C 101.203125 121.589844 106.292969 116.960938 107.101562 110.582031 L 107.03125 92.242188 L 136.582031 119.230469 C 136.753906 119.410156 136.984375 119.628906 137.273438 119.859375 C 140.753906 122.589844 147.894531 122.191406 151.902344 117.929688 C 156.332031 113.242188 154.472656 106.46875 154.371094 106.121094 L 154.242188 105.671875 L 143.941406 95.339844 L 107.753906 61.152344 L 153.753906 17.339844 C 153.941406 17.191406 154.164062 16.992188 154.382812 16.730469 C 156.871094 13.742188 155.523438 6.660156 151.273438 3.082031 C 147.59375 -0.0195312 141.902344 -0.339844 137.132812 2.351562 L 130.753906 8.492188 Z M 130.761719 8.492188 " clip-rule="nonzero"/></clipPath><clipPath id="6b38aac42f"><rect x="0" width="156" y="0" height="122"/></clipPath><clipPath id="79659c7747"><path d="M 198 256.101562 L 220.792969 256.101562 L 220.792969 296.429688 L 198 296.429688 Z M 198 256.101562 " clip-rule="nonzero"/></clipPath><clipPath id="eb8ce186a5"><path d="M 198.292969 296.121094 L 198.292969 265.601562 C 198.3125 265.519531 198.332031 265.421875 198.351562 265.3125 C 199.28125 261.402344 203.664062 256.410156 209.824219 256.550781 C 214.851562 256.660156 219.332031 260.160156 220.734375 265.152344 L 220.734375 275.710938 Z M 198.292969 296.121094 " clip-rule="nonzero"/></clipPath><clipPath id="01ddcb45c8"><path d="M 0.238281 0.320312 L 22.792969 0.320312 L 22.792969 40.160156 L 0.238281 40.160156 Z M 0.238281 0.320312 " clip-rule="nonzero"/></clipPath><clipPath id="fb1e916e95"><path d="M 0.292969 40.121094 L 0.292969 9.601562 C 0.3125 9.519531 0.332031 9.421875 0.351562 9.3125 C 1.28125 5.402344 5.664062 0.410156 11.824219 0.550781 C 16.851562 0.660156 21.332031 4.160156 22.734375 9.152344 L 22.734375 19.710938 Z M 0.292969 40.121094 " clip-rule="nonzero"/></clipPath><clipPath id="5bfc9047ca"><rect x="0" width="23" y="0" height="41"/></clipPath></defs><rect x="-81" width="972" fill="#ffffff" y="-80.999999" height="971.999992" fill-opacity="1"/><rect x="-81" width="972" fill="#ffffff" y="-80.999999" height="971.999992" fill-opacity="1"/><g clip-path="url(#df0f46972d)"><g clip-path="url(#7b486af70f)"><g transform="matrix(1, 0, 0, 1, 114, 256)"><g clip-path="url(#6b38aac42f)"><g clip-path="url(#45ae486840)"><g clip-path="url(#03b355111c)"><rect x="-292.2" width="1166.4" fill="#ee652f" height="1166.39999" y="-434.199998" fill-opacity="1"/></g></g></g></g></g></g><g clip-path="url(#79659c7747)"><g clip-path="url(#eb8ce186a5)"><g transform="matrix(1, 0, 0, 1, 198, 256)"><g clip-path="url(#5bfc9047ca)"><g clip-path="url(#01ddcb45c8)"><g clip-path="url(#fb1e916e95)"><rect x="-376.2" width="1166.4" fill="#0f4057" height="1166.39999" y="-434.199998" fill-opacity="1"/></g></g></g></g></g></g><g fill="#ee652f" fill-opacity="1"><g transform="translate(273.051729, 307.852709)"><g/></g></g><g fill="#0f4057" fill-opacity="1"><g transform="translate(279.628494, 296.090542)"><g><path d="M 1.28125 0 Z M 31.078125 0 L 27.125 0 L 27.125 1.21875 C 27.125 2.59375 26.8125 3.859375 26.1875 5.015625 C 25.570312 6.171875 24.625 7.101562 23.34375 7.8125 C 22.070312 8.519531 20.503906 8.875 18.640625 8.875 L 9.609375 8.875 C 7.722656 8.875 6.15625 8.519531 4.90625 7.8125 C 3.664062 7.101562 2.75 6.164062 2.15625 5 C 1.570312 3.832031 1.28125 2.550781 1.28125 1.15625 C 1.28125 -0.625 1.722656 -3.976562 2.609375 -8.90625 L 6.625 -8.234375 L 6.390625 -6.71875 C 6.097656 -4.832031 5.867188 -3.300781 5.703125 -2.125 C 5.546875 -0.945312 5.46875 -0.00390625 5.46875 0.703125 C 5.46875 1.953125 5.78125 2.972656 6.40625 3.765625 C 7.039062 4.554688 8.109375 4.953125 9.609375 4.953125 L 18.640625 4.953125 C 20.117188 4.953125 21.179688 4.554688 21.828125 3.765625 C 22.484375 2.972656 22.8125 1.972656 22.8125 0.765625 L 22.8125 0 L 18.828125 0 C 17.140625 0 15.832031 -0.175781 14.90625 -0.53125 C 13.988281 -0.882812 13.304688 -1.597656 12.859375 -2.671875 C 12.410156 -3.742188 12.1875 -5.367188 12.1875 -7.546875 C 12.1875 -9.890625 12.457031 -11.664062 13 -12.875 C 13.550781 -14.082031 14.425781 -14.910156 15.625 -15.359375 C 16.820312 -15.804688 18.523438 -16.03125 20.734375 -16.03125 C 22.484375 -16.03125 24.054688 -15.957031 25.453125 -15.8125 L 27.125 -15.625 L 27.125 -3.921875 L 31.078125 -3.921875 Z M 16.484375 -7.625 C 16.484375 -6.457031 16.59375 -5.613281 16.8125 -5.09375 C 17.039062 -4.570312 17.378906 -4.242188 17.828125 -4.109375 C 18.285156 -3.984375 18.972656 -3.921875 19.890625 -3.921875 L 22.8125 -3.921875 L 22.8125 -12.046875 C 22.175781 -12.085938 21.523438 -12.109375 20.859375 -12.109375 C 19.722656 -12.109375 18.847656 -11.988281 18.234375 -11.75 C 17.628906 -11.519531 17.1875 -11.082031 16.90625 -10.4375 C 16.625 -9.800781 16.484375 -8.863281 16.484375 -7.625 Z M 17.15625 -23.078125 L 20.46875 -23.078125 L 20.46875 -19.0625 L 17.15625 -19.0625 Z M 22.046875 -23.078125 L 25.359375 -23.078125 L 25.359375 -19.0625 L 22.046875 -19.0625 Z M 22.046875 -23.078125 "/></g></g></g><g fill="#0f4057" fill-opacity="1"><g transform="translate(310.705451, 296.090542)"><g><path d="M 0 0 Z M 17.90625 -15.625 L 17.90625 0 L 0 0 L 0 -3.921875 L 3.4375 -3.921875 C 3.070312 -5.222656 2.890625 -6.703125 2.890625 -8.359375 C 2.890625 -10.304688 3.191406 -11.835938 3.796875 -12.953125 C 4.410156 -14.066406 5.335938 -14.859375 6.578125 -15.328125 C 7.828125 -15.796875 9.46875 -16.03125 11.5 -16.03125 C 13.300781 -16.03125 14.878906 -15.957031 16.234375 -15.8125 Z M 7.265625 -7.546875 C 7.265625 -6.734375 7.316406 -6.078125 7.421875 -5.578125 C 7.523438 -5.078125 7.675781 -4.523438 7.875 -3.921875 L 13.59375 -3.921875 L 13.59375 -12.109375 C 12.65625 -12.179688 11.914062 -12.21875 11.375 -12.21875 C 10.21875 -12.21875 9.351562 -12.085938 8.78125 -11.828125 C 8.21875 -11.566406 7.820312 -11.113281 7.59375 -10.46875 C 7.375 -9.832031 7.265625 -8.859375 7.265625 -7.546875 Z M 8.75 -23.234375 L 12.703125 -23.234375 L 12.703125 -19.0625 L 8.75 -19.0625 Z M 8.75 -23.234375 "/></g></g></g><g fill="#0f4057" fill-opacity="1"><g transform="translate(330.210096, 296.090542)"><g><path d="M 2.578125 -22.5 L 6.875 -22.5 L 6.875 0 L 2.578125 0 Z M 2.578125 -22.5 "/></g></g></g><g fill="#0f4057" fill-opacity="1"><g transform="translate(339.978486, 296.090542)"><g><path d="M 14.296875 0 L 9 0 C 8.976562 2.53125 8.519531 4.488281 7.625 5.875 C 6.738281 7.269531 5.40625 7.96875 3.625 7.96875 C 3.351562 7.96875 2.570312 7.925781 1.28125 7.84375 L 1.28125 3.984375 L 2.375 4.046875 C 3.144531 4.046875 3.722656 3.738281 4.109375 3.125 C 4.492188 2.519531 4.6875 1.660156 4.6875 0.546875 L 4.6875 -16.078125 L 9 -16.078125 L 9 -3.921875 L 14.296875 -3.921875 Z M 14.296875 0 "/></g></g></g><g fill="#0f4057" fill-opacity="1"><g transform="translate(354.279675, 296.090542)"><g><path d="M 23.71875 -3.921875 L 23.71875 0 L 21.953125 0 C 21.585938 0 21.242188 -0.125 20.921875 -0.375 C 20.597656 -0.632812 20.363281 -0.96875 20.21875 -1.375 L 20.21875 0 L 0 0 L 0 -3.921875 L 5.015625 -3.921875 C 4.710938 -5.460938 4.5625 -6.820312 4.5625 -8 C 4.5625 -9.175781 4.675781 -10.441406 4.90625 -11.796875 C 5.144531 -13.148438 5.414062 -14.316406 5.71875 -15.296875 C 6.300781 -15.578125 7.160156 -15.820312 8.296875 -16.03125 C 9.429688 -16.25 10.691406 -16.359375 12.078125 -16.359375 C 14.285156 -16.359375 15.984375 -16.035156 17.171875 -15.390625 C 18.367188 -14.753906 19.175781 -13.84375 19.59375 -12.65625 C 20.007812 -11.476562 20.21875 -9.9375 20.21875 -8.03125 L 20.21875 -5.296875 C 20.363281 -4.867188 20.597656 -4.53125 20.921875 -4.28125 C 21.242188 -4.039062 21.585938 -3.921875 21.953125 -3.921875 Z M 8.75 -8 C 8.75 -7.269531 8.796875 -6.523438 8.890625 -5.765625 C 8.984375 -5.003906 9.082031 -4.390625 9.1875 -3.921875 L 15.90625 -3.921875 L 15.90625 -8.125 C 15.90625 -9.625 15.609375 -10.726562 15.015625 -11.4375 C 14.429688 -12.144531 13.304688 -12.5 11.640625 -12.5 C 10.816406 -12.5 10 -12.414062 9.1875 -12.25 C 8.894531 -10.632812 8.75 -9.21875 8.75 -8 Z M 8.75 -8 "/></g></g></g><g fill="#0f4057" fill-opacity="1"><g transform="translate(377.997142, 296.090542)"><g><path d="M 8.265625 -22.5 L 8.265625 0 L 0 0 L 0 -3.921875 L 3.953125 -3.921875 L 3.953125 -22.5 Z M 8.265625 -22.5 "/></g></g></g><g fill="#0f4057" fill-opacity="1"><g transform="translate(388.825919, 296.090542)"><g><path d="M 2.578125 -22.5 L 6.875 -22.5 L 6.875 0 L 2.578125 0 Z M 2.578125 -22.5 "/></g></g></g><g fill="#0f4057" fill-opacity="1"><g transform="translate(398.594309, 296.090542)"><g/></g></g><g fill="#0f4057" fill-opacity="1"><g transform="translate(405.663542, 296.090542)"><g><path d="M 1.28125 0 Z M 10.0625 -16.390625 C 11.257812 -16.390625 12.691406 -16.347656 14.359375 -16.265625 C 16.035156 -16.179688 17.21875 -16.082031 17.90625 -15.96875 L 17.90625 0 L 9.90625 0 C 7.78125 0 6.101562 -0.222656 4.875 -0.671875 C 3.65625 -1.117188 2.75 -1.9375 2.15625 -3.125 C 1.570312 -4.320312 1.28125 -6.054688 1.28125 -8.328125 C 1.28125 -10.492188 1.554688 -12.148438 2.109375 -13.296875 C 2.671875 -14.441406 3.570312 -15.242188 4.8125 -15.703125 C 6.0625 -16.160156 7.8125 -16.390625 10.0625 -16.390625 Z M 5.59375 -8.328125 C 5.59375 -7.128906 5.75 -6.210938 6.0625 -5.578125 C 6.375 -4.941406 6.847656 -4.503906 7.484375 -4.265625 C 8.128906 -4.035156 9.007812 -3.921875 10.125 -3.921875 L 13.59375 -3.921875 L 13.59375 -12.3125 C 12.519531 -12.414062 11.394531 -12.46875 10.21875 -12.46875 C 9.039062 -12.46875 8.125 -12.347656 7.46875 -12.109375 C 6.820312 -11.878906 6.347656 -11.46875 6.046875 -10.875 C 5.742188 -10.289062 5.59375 -9.441406 5.59375 -8.328125 Z M 6.328125 -23.078125 L 9.640625 -23.078125 L 9.640625 -19.0625 L 6.328125 -19.0625 Z M 11.21875 -23.078125 L 14.53125 -23.078125 L 14.53125 -19.0625 L 11.21875 -19.0625 Z M 11.21875 -23.078125 "/></g></g></g><g fill="#0f4057" fill-opacity="1"><g transform="translate(425.168187, 296.090542)"><g><path d="M 3.625 7.96875 C 3.351562 7.96875 2.570312 7.925781 1.28125 7.84375 L 1.28125 3.984375 L 2.375 4.046875 C 3.144531 4.046875 3.722656 3.738281 4.109375 3.125 C 4.492188 2.519531 4.6875 1.660156 4.6875 0.546875 L 4.6875 -16.078125 L 9 -16.078125 L 9 -0.1875 C 9 2.375 8.550781 4.375 7.65625 5.8125 C 6.769531 7.25 5.425781 7.96875 3.625 7.96875 Z M 3.625 7.96875 "/></g></g></g><g fill="#0f4057" fill-opacity="1"><g transform="translate(436.093357, 296.090542)"><g><path d="M 2.578125 -22.5 L 6.875 -22.5 L 6.875 0 L 2.578125 0 Z M 2.578125 -22.5 "/></g></g></g><g fill="#0f4057" fill-opacity="1"><g transform="translate(445.861748, 296.090542)"><g><path d="M 7.296875 -16.8125 C 9.015625 -16.8125 10.519531 -16.382812 11.8125 -15.53125 C 13.101562 -14.6875 14.109375 -13.414062 14.828125 -11.71875 C 15.546875 -10.03125 15.90625 -7.957031 15.90625 -5.5 L 15.90625 0 L 1.28125 0 L 1.28125 -3.921875 L 11.609375 -3.921875 L 11.609375 -5.078125 C 11.609375 -7.859375 11.082031 -9.84375 10.03125 -11.03125 C 8.976562 -12.226562 7.722656 -12.828125 6.265625 -12.828125 L 3.015625 -12.828125 L 2.703125 -16.203125 C 3.367188 -16.347656 4.125 -16.484375 4.96875 -16.609375 C 5.8125 -16.742188 6.585938 -16.8125 7.296875 -16.8125 Z M 7.296875 -16.8125 "/></g></g></g><g fill="#0f4057" fill-opacity="1"><g transform="translate(462.731505, 296.090542)"><g><path d="M 1.28125 0 Z M 18.28125 -22.5 L 18.28125 0 L 1.28125 0 L 1.28125 -3.921875 L 5.328125 -3.921875 L 5.328125 -18.15625 L 9.640625 -18.15625 L 9.640625 -3.921875 L 13.984375 -3.921875 L 13.984375 -22.5 Z M 11.1875 8.921875 L 4.140625 10.3125 L 3.78125 8.796875 L 5.265625 8.421875 C 4.429688 7.710938 4.015625 6.84375 4.015625 5.8125 C 4.015625 4.9375 4.328125 4.175781 4.953125 3.53125 C 5.585938 2.882812 6.398438 2.5625 7.390625 2.5625 C 8.222656 2.5625 9.054688 2.820312 9.890625 3.34375 L 9.484375 5.265625 C 9.347656 5.160156 9.160156 5.054688 8.921875 4.953125 C 8.691406 4.859375 8.425781 4.8125 8.125 4.8125 C 7.632812 4.8125 7.234375 4.972656 6.921875 5.296875 C 6.609375 5.617188 6.453125 6.003906 6.453125 6.453125 C 6.453125 7.054688 6.710938 7.539062 7.234375 7.90625 L 10.734375 6.96875 Z M 11.1875 8.921875 "/></g></g></g><g fill="#0f4057" fill-opacity="1"><g transform="translate(483.232267, 296.090542)"><g/></g></g><g fill="#0f4057" fill-opacity="1"><g transform="translate(490.301488, 296.090542)"><g><path d="M 14.296875 0 L 9 0 C 8.976562 2.53125 8.519531 4.488281 7.625 5.875 C 6.738281 7.269531 5.40625 7.96875 3.625 7.96875 C 3.351562 7.96875 2.570312 7.925781 1.28125 7.84375 L 1.28125 3.984375 L 2.375 4.046875 C 3.144531 4.046875 3.722656 3.738281 4.109375 3.125 C 4.492188 2.519531 4.6875 1.660156 4.6875 0.546875 L 4.6875 -16.078125 L 9 -16.078125 L 9 -3.921875 L 14.296875 -3.921875 Z M 14.296875 0 "/></g></g></g><g fill="#0f4057" fill-opacity="1"><g transform="translate(504.602689, 296.090542)"><g><path d="M 0 0 Z M 13.921875 -3.921875 L 13.921875 0 L 0 0 L 0 -3.921875 L 4.78125 -3.921875 L 4.78125 -16.078125 L 9.09375 -16.078125 L 9.09375 -3.921875 Z M 2.796875 2.578125 L 6.109375 2.578125 L 6.109375 6.59375 L 2.796875 6.59375 Z M 7.6875 2.578125 L 11 2.578125 L 11 6.59375 L 7.6875 6.59375 Z M 7.6875 2.578125 "/></g></g></g><g fill="#0f4057" fill-opacity="1"><g transform="translate(518.518223, 296.090542)"><g><path d="M 0 0 Z M 19.734375 -3.921875 L 19.734375 0 L 0 0 L 0 -3.921875 L 12.109375 -3.921875 L 12.109375 -9.96875 C 12.109375 -10.882812 11.910156 -11.570312 11.515625 -12.03125 C 11.117188 -12.5 10.441406 -12.734375 9.484375 -12.734375 C 7.515625 -12.660156 5.800781 -12.59375 4.34375 -12.53125 L 2.703125 -12.46875 L 2.578125 -15.328125 C 3.691406 -15.628906 5.039062 -15.878906 6.625 -16.078125 C 8.207031 -16.285156 9.546875 -16.390625 10.640625 -16.390625 C 12.648438 -16.390625 14.109375 -15.96875 15.015625 -15.125 C 15.929688 -14.28125 16.398438 -12.9375 16.421875 -11.09375 L 16.421875 -3.921875 Z M 7.9375 -23.234375 L 11.890625 -23.234375 L 11.890625 -19.0625 L 7.9375 -19.0625 Z M 7.9375 -23.234375 "/></g></g></g><g fill="#0f4057" fill-opacity="1"><g transform="translate(538.250628, 296.090542)"><g><path d="M 8.265625 -22.5 L 8.265625 0 L 0 0 L 0 -3.921875 L 3.953125 -3.921875 L 3.953125 -22.5 Z M 8.265625 -22.5 "/></g></g></g><g fill="#0f4057" fill-opacity="1"><g transform="translate(549.079417, 296.090542)"><g><path d="M 2.578125 -22.5 L 6.875 -22.5 L 6.875 0 L 2.578125 0 Z M 2.578125 -22.5 "/></g></g></g><g fill="#0f4057" fill-opacity="1"><g transform="translate(558.847795, 296.090542)"><g/></g></g><g fill="#0f4057" fill-opacity="1"><g transform="translate(565.917039, 296.090542)"><g><path d="M 1.28125 0 Z M 10.703125 7.96875 C 8.878906 7.96875 7.253906 7.628906 5.828125 6.953125 C 4.410156 6.285156 3.296875 5.367188 2.484375 4.203125 C 1.679688 3.046875 1.28125 1.773438 1.28125 0.390625 C 1.28125 -0.984375 1.664062 -4.0625 2.4375 -8.84375 L 6.5 -8.609375 C 6.238281 -6.984375 6 -5.289062 5.78125 -3.53125 C 5.570312 -1.78125 5.46875 -0.625 5.46875 -0.0625 C 5.46875 0.6875 5.679688 1.375 6.109375 2 C 6.535156 2.632812 7.140625 3.132812 7.921875 3.5 C 8.703125 3.863281 9.578125 4.046875 10.546875 4.046875 C 11.503906 4.046875 12.351562 3.863281 13.09375 3.5 C 13.832031 3.132812 14.398438 2.640625 14.796875 2.015625 C 15.191406 1.398438 15.390625 0.726562 15.390625 0 L 15.390625 -16.078125 L 19.703125 -16.078125 L 19.703125 0.453125 C 19.703125 1.816406 19.332031 3.070312 18.59375 4.21875 C 17.851562 5.375 16.800781 6.285156 15.4375 6.953125 C 14.082031 7.628906 12.503906 7.96875 10.703125 7.96875 Z M 8.75 -20.25 L 12.703125 -20.25 L 12.703125 -16.078125 L 8.75 -16.078125 Z M 8.75 -20.25 "/></g></g></g><g fill="#0f4057" fill-opacity="1"><g transform="translate(587.381806, 296.090542)"><g><path d="M 8.671875 -16.71875 C 9.921875 -16.71875 11.238281 -16.632812 12.625 -16.46875 C 14.019531 -16.3125 15.191406 -16.125 16.140625 -15.90625 L 16.140625 -2.828125 C 16.140625 -1.066406 16.003906 0.578125 15.734375 2.109375 C 15.460938 3.640625 14.828125 5 13.828125 6.1875 C 12.835938 7.375 11.347656 7.96875 9.359375 7.96875 C 8.203125 7.96875 6.335938 7.765625 3.765625 7.359375 L 3.765625 3.46875 C 6.335938 3.851562 8.070312 4.046875 8.96875 4.046875 C 9.65625 4.046875 10.191406 3.925781 10.578125 3.6875 C 10.960938 3.457031 11.242188 3.050781 11.421875 2.46875 C 11.609375 1.894531 11.703125 1.070312 11.703125 0 L 7.96875 0 C 3.53125 0 1.3125 -2.503906 1.3125 -7.515625 C 1.3125 -10.066406 1.59375 -12.003906 2.15625 -13.328125 C 2.726562 -14.660156 3.535156 -15.554688 4.578125 -16.015625 C 5.617188 -16.484375 6.984375 -16.71875 8.671875 -16.71875 Z M 5.625 -7.78125 C 5.625 -6.6875 5.859375 -5.769531 6.328125 -5.03125 C 6.796875 -4.289062 7.738281 -3.921875 9.15625 -3.921875 L 11.828125 -3.921875 L 11.828125 -12.625 C 11.015625 -12.738281 10.234375 -12.796875 9.484375 -12.796875 C 8.578125 -12.796875 7.859375 -12.671875 7.328125 -12.421875 C 6.796875 -12.171875 6.378906 -11.6875 6.078125 -10.96875 C 5.773438 -10.257812 5.625 -9.195312 5.625 -7.78125 Z M 5.625 -7.78125 "/></g></g></g><g fill="#0f4057" fill-opacity="1"><g transform="translate(605.11914, 296.090542)"><g><path d="M 1.28125 0 Z M 14.296875 0 L 9 0 C 8.976562 2.53125 8.519531 4.488281 7.625 5.875 C 6.738281 7.269531 5.40625 7.96875 3.625 7.96875 C 3.351562 7.96875 2.570312 7.925781 1.28125 7.84375 L 1.28125 3.984375 L 2.375 4.046875 C 3.144531 4.046875 3.722656 3.738281 4.109375 3.125 C 4.492188 2.519531 4.6875 1.660156 4.6875 0.546875 L 4.6875 -16.078125 L 9 -16.078125 L 9 -3.921875 L 14.296875 -3.921875 Z M 4.859375 -23.234375 L 8.8125 -23.234375 L 8.8125 -19.0625 L 4.859375 -19.0625 Z M 4.859375 -23.234375 "/></g></g></g><g fill="#0f4057" fill-opacity="1"><g transform="translate(619.420317, 296.090542)"><g><path d="M 12.078125 -16.359375 C 14.285156 -16.359375 15.984375 -16.035156 17.171875 -15.390625 C 18.367188 -14.753906 19.175781 -13.84375 19.59375 -12.65625 C 20.007812 -11.476562 20.21875 -9.9375 20.21875 -8.03125 L 20.21875 0 L 0 0 L 0 -3.921875 L 5.015625 -3.921875 C 4.710938 -5.460938 4.5625 -6.820312 4.5625 -8 C 4.5625 -9.175781 4.675781 -10.441406 4.90625 -11.796875 C 5.144531 -13.148438 5.414062 -14.316406 5.71875 -15.296875 C 6.300781 -15.578125 7.160156 -15.820312 8.296875 -16.03125 C 9.429688 -16.25 10.691406 -16.359375 12.078125 -16.359375 Z M 8.75 -8 C 8.75 -7.269531 8.796875 -6.523438 8.890625 -5.765625 C 8.984375 -5.003906 9.082031 -4.390625 9.1875 -3.921875 L 15.90625 -3.921875 L 15.90625 -8.125 C 15.90625 -9.625 15.609375 -10.726562 15.015625 -11.4375 C 14.429688 -12.144531 13.304688 -12.5 11.640625 -12.5 C 10.816406 -12.5 10 -12.414062 9.1875 -12.25 C 8.894531 -10.632812 8.75 -9.21875 8.75 -8 Z M 8.75 -8 "/></g></g></g><g fill="#0f4057" fill-opacity="1"><g transform="translate(641.238546, 296.090542)"><g/></g></g><g fill="#0f4057" fill-opacity="1"><g transform="translate(648.307767, 296.090542)"><g><path d="M 1.28125 0 Z M 21.25 -3.921875 L 21.25 0 L 9.90625 0 C 7.78125 0 6.101562 -0.222656 4.875 -0.671875 C 3.65625 -1.117188 2.75 -1.9375 2.15625 -3.125 C 1.570312 -4.320312 1.28125 -6.054688 1.28125 -8.328125 C 1.28125 -10.492188 1.554688 -12.148438 2.109375 -13.296875 C 2.671875 -14.441406 3.570312 -15.242188 4.8125 -15.703125 C 6.0625 -16.160156 7.8125 -16.390625 10.0625 -16.390625 C 11.257812 -16.390625 12.691406 -16.347656 14.359375 -16.265625 C 16.035156 -16.179688 17.21875 -16.082031 17.90625 -15.96875 L 17.90625 -3.921875 Z M 5.59375 -8.328125 C 5.59375 -7.128906 5.75 -6.210938 6.0625 -5.578125 C 6.375 -4.941406 6.847656 -4.503906 7.484375 -4.265625 C 8.128906 -4.035156 9.007812 -3.921875 10.125 -3.921875 L 13.59375 -3.921875 L 13.59375 -12.3125 C 12.519531 -12.414062 11.394531 -12.46875 10.21875 -12.46875 C 9.039062 -12.46875 8.125 -12.347656 7.46875 -12.109375 C 6.820312 -11.878906 6.347656 -11.46875 6.046875 -10.875 C 5.742188 -10.289062 5.59375 -9.441406 5.59375 -8.328125 Z M 6.328125 -23.078125 L 9.640625 -23.078125 L 9.640625 -19.0625 L 6.328125 -19.0625 Z M 11.21875 -23.078125 L 14.53125 -23.078125 L 14.53125 -19.0625 L 11.21875 -19.0625 Z M 11.21875 -23.078125 "/></g></g></g><g fill="#0f4057" fill-opacity="1"><g transform="translate(669.550655, 296.090542)"><g><path d="M 12.34375 -15.59375 C 14.050781 -15.59375 15.363281 -15.128906 16.28125 -14.203125 C 17.207031 -13.285156 17.828125 -12.25 18.140625 -11.09375 C 18.453125 -9.9375 18.609375 -8.851562 18.609375 -7.84375 L 18.609375 0 L 0 0 L 0 -3.921875 L 14.296875 -3.921875 L 14.296875 -7.875 C 14.296875 -8.988281 14.035156 -9.898438 13.515625 -10.609375 C 12.992188 -11.316406 12.367188 -11.671875 11.640625 -11.671875 L 3.015625 -11.671875 L 0.796875 -14.65625 L 2.734375 -18.421875 C 3.160156 -19.273438 3.738281 -20.1875 4.46875 -21.15625 C 5.195312 -22.132812 5.882812 -22.976562 6.53125 -23.6875 L 9.703125 -21.890625 C 8.585938 -20.304688 7.539062 -18.582031 6.5625 -16.71875 L 5.984375 -15.59375 Z M 12.34375 -15.59375 "/></g></g></g><g fill="#0f4057" fill-opacity="1"><g transform="translate(690.083552, 296.090542)"><g><path d="M 14.296875 0 L 9 0 C 8.976562 2.53125 8.519531 4.488281 7.625 5.875 C 6.738281 7.269531 5.40625 7.96875 3.625 7.96875 C 3.351562 7.96875 2.570312 7.925781 1.28125 7.84375 L 1.28125 3.984375 L 2.375 4.046875 C 3.144531 4.046875 3.722656 3.738281 4.109375 3.125 C 4.492188 2.519531 4.6875 1.660156 4.6875 0.546875 L 4.6875 -16.078125 L 9 -16.078125 L 9 -3.921875 L 14.296875 -3.921875 Z M 14.296875 0 "/></g></g></g><g fill="#0f4057" fill-opacity="1"><g transform="translate(704.384729, 296.090542)"><g><path d="M 0 0 Z M 24.75 -16.109375 C 24.988281 -14.734375 25.195312 -13.335938 25.375 -11.921875 C 25.550781 -10.503906 25.640625 -9.507812 25.640625 -8.9375 L 25.640625 0 L 19.03125 0 C 18.320312 0 17.640625 -0.113281 16.984375 -0.34375 C 16.328125 -0.582031 15.796875 -0.863281 15.390625 -1.1875 C 14.535156 -0.394531 13.46875 0 12.1875 0 L 0 0 L 0 -3.921875 L 4.921875 -3.921875 L 4.921875 -14.46875 L 9.21875 -14.46875 L 9.21875 -3.921875 L 10.703125 -3.921875 C 11.515625 -3.921875 12.140625 -4.242188 12.578125 -4.890625 C 13.015625 -5.546875 13.234375 -6.390625 13.234375 -7.421875 L 13.234375 -14.46875 L 17.546875 -14.46875 L 17.546875 -7.421875 C 17.546875 -6.328125 17.441406 -5.351562 17.234375 -4.5 C 17.421875 -4.351562 17.671875 -4.21875 17.984375 -4.09375 C 18.296875 -3.976562 18.613281 -3.921875 18.9375 -3.921875 L 21.34375 -3.921875 L 21.34375 -8.328125 C 21.34375 -9.691406 21.320312 -10.847656 21.28125 -11.796875 C 21.238281 -12.753906 21.140625 -14.132812 20.984375 -15.9375 Z M 13.921875 -27.359375 L 17 -27.359375 L 17 -23.765625 L 13.921875 -23.765625 Z M 11.34375 -22.921875 L 14.65625 -22.921875 L 14.65625 -19.0625 L 11.34375 -19.0625 Z M 16.234375 -22.921875 L 19.546875 -22.921875 L 19.546875 -19.0625 L 16.234375 -19.0625 Z M 16.234375 -22.921875 "/></g></g></g><g fill="#ee652f" fill-opacity="1"><g transform="translate(370.806724, 608.172997)"><g/></g></g><g fill="#ee652f" fill-opacity="1"><g transform="translate(281.195233, 348.094514)"><g><path d="M 16.359375 -14.1875 L 16.359375 0 L 13.46875 0 L 13.46875 -10.96875 L 13.15625 -10.96875 L 10.390625 -0.625 L 7.515625 -0.625 L 4.734375 -10.96875 L 4.421875 -10.96875 L 4.421875 0 L 1.546875 0 L 1.546875 -14.1875 L 6.453125 -14.1875 L 8.953125 -3.859375 L 11.453125 -14.1875 Z M 16.359375 -14.1875 "/></g></g></g><g fill="#ee652f" fill-opacity="1"><g transform="translate(300.438393, 348.094514)"><g><path d="M 6.796875 0.25 C 5.367188 0.25 4.222656 -0.00390625 3.359375 -0.515625 C 2.492188 -1.035156 1.867188 -1.828125 1.484375 -2.890625 C 1.109375 -3.953125 0.921875 -5.332031 0.921875 -7.03125 C 0.921875 -8.738281 1.109375 -10.128906 1.484375 -11.203125 C 1.867188 -12.285156 2.492188 -13.09375 3.359375 -13.625 C 4.222656 -14.164062 5.367188 -14.4375 6.796875 -14.4375 C 8.234375 -14.4375 9.378906 -14.164062 10.234375 -13.625 C 11.097656 -13.09375 11.722656 -12.285156 12.109375 -11.203125 C 12.492188 -10.128906 12.6875 -8.738281 12.6875 -7.03125 C 12.6875 -5.363281 12.5 -4 12.125 -2.9375 C 11.757812 -1.882812 11.144531 -1.085938 10.28125 -0.546875 C 9.414062 -0.015625 8.253906 0.25 6.796875 0.25 Z M 6.796875 -2.25 C 7.546875 -2.25 8.132812 -2.40625 8.5625 -2.71875 C 8.988281 -3.03125 9.285156 -3.53125 9.453125 -4.21875 C 9.628906 -4.90625 9.71875 -5.84375 9.71875 -7.03125 C 9.71875 -8.207031 9.625 -9.144531 9.4375 -9.84375 C 9.257812 -10.550781 8.957031 -11.078125 8.53125 -11.421875 C 8.113281 -11.765625 7.535156 -11.9375 6.796875 -11.9375 C 6.054688 -11.9375 5.472656 -11.765625 5.046875 -11.421875 C 4.628906 -11.078125 4.328125 -10.550781 4.140625 -9.84375 C 3.960938 -9.144531 3.875 -8.207031 3.875 -7.03125 C 3.875 -5.925781 3.953125 -5.035156 4.109375 -4.359375 C 4.265625 -3.679688 4.550781 -3.160156 4.96875 -2.796875 C 5.394531 -2.429688 6.003906 -2.25 6.796875 -2.25 Z M 6.796875 -2.25 "/></g></g></g><g fill="#ee652f" fill-opacity="1"><g transform="translate(315.386916, 348.094514)"><g><path d="M 0.859375 -2.484375 L 6.78125 -11.3125 L 6.78125 -11.6875 L 0.859375 -11.6875 L 0.859375 -14.1875 L 10.234375 -14.1875 L 10.234375 -11.6875 L 4.3125 -2.875 L 4.3125 -2.5 L 10.234375 -2.5 L 10.234375 0 L 0.859375 0 Z M 0.859375 -2.484375 "/></g></g></g><g fill="#ee652f" fill-opacity="1"><g transform="translate(327.833716, 348.094514)"><g><path d="M 6.796875 0.25 C 5.367188 0.25 4.222656 -0.00390625 3.359375 -0.515625 C 2.492188 -1.035156 1.867188 -1.828125 1.484375 -2.890625 C 1.109375 -3.953125 0.921875 -5.332031 0.921875 -7.03125 C 0.921875 -8.738281 1.109375 -10.128906 1.484375 -11.203125 C 1.867188 -12.285156 2.492188 -13.09375 3.359375 -13.625 C 4.222656 -14.164062 5.367188 -14.4375 6.796875 -14.4375 C 8.234375 -14.4375 9.378906 -14.164062 10.234375 -13.625 C 11.097656 -13.09375 11.722656 -12.285156 12.109375 -11.203125 C 12.492188 -10.128906 12.6875 -8.738281 12.6875 -7.03125 C 12.6875 -5.363281 12.5 -4 12.125 -2.9375 C 11.757812 -1.882812 11.144531 -1.085938 10.28125 -0.546875 C 9.414062 -0.015625 8.253906 0.25 6.796875 0.25 Z M 6.796875 -2.25 C 7.546875 -2.25 8.132812 -2.40625 8.5625 -2.71875 C 8.988281 -3.03125 9.285156 -3.53125 9.453125 -4.21875 C 9.628906 -4.90625 9.71875 -5.84375 9.71875 -7.03125 C 9.71875 -8.207031 9.625 -9.144531 9.4375 -9.84375 C 9.257812 -10.550781 8.957031 -11.078125 8.53125 -11.421875 C 8.113281 -11.765625 7.535156 -11.9375 6.796875 -11.9375 C 6.054688 -11.9375 5.472656 -11.765625 5.046875 -11.421875 C 4.628906 -11.078125 4.328125 -10.550781 4.140625 -9.84375 C 3.960938 -9.144531 3.875 -8.207031 3.875 -7.03125 C 3.875 -5.925781 3.953125 -5.035156 4.109375 -4.359375 C 4.265625 -3.679688 4.550781 -3.160156 4.96875 -2.796875 C 5.394531 -2.429688 6.003906 -2.25 6.796875 -2.25 Z M 6.796875 -2.25 "/></g></g></g><g fill="#ee652f" fill-opacity="1"><g transform="translate(342.78224, 348.094514)"><g><path d="M 6.796875 0.25 C 5.367188 0.25 4.222656 -0.00390625 3.359375 -0.515625 C 2.492188 -1.035156 1.867188 -1.828125 1.484375 -2.890625 C 1.109375 -3.953125 0.921875 -5.332031 0.921875 -7.03125 C 0.921875 -8.738281 1.109375 -10.128906 1.484375 -11.203125 C 1.867188 -12.285156 2.492188 -13.09375 3.359375 -13.625 C 4.222656 -14.164062 5.367188 -14.4375 6.796875 -14.4375 C 8.234375 -14.4375 9.378906 -14.164062 10.234375 -13.625 C 11.097656 -13.09375 11.722656 -12.285156 12.109375 -11.203125 C 12.492188 -10.128906 12.6875 -8.738281 12.6875 -7.03125 C 12.6875 -5.363281 12.5 -4 12.125 -2.9375 C 11.757812 -1.882812 11.144531 -1.085938 10.28125 -0.546875 C 9.414062 -0.015625 8.253906 0.25 6.796875 0.25 Z M 6.796875 -2.25 C 7.546875 -2.25 8.132812 -2.40625 8.5625 -2.71875 C 8.988281 -3.03125 9.285156 -3.53125 9.453125 -4.21875 C 9.628906 -4.90625 9.71875 -5.84375 9.71875 -7.03125 C 9.71875 -8.207031 9.625 -9.144531 9.4375 -9.84375 C 9.257812 -10.550781 8.957031 -11.078125 8.53125 -11.421875 C 8.113281 -11.765625 7.535156 -11.9375 6.796875 -11.9375 C 6.054688 -11.9375 5.472656 -11.765625 5.046875 -11.421875 C 4.628906 -11.078125 4.328125 -10.550781 4.140625 -9.84375 C 3.960938 -9.144531 3.875 -8.207031 3.875 -7.03125 C 3.875 -5.925781 3.953125 -5.035156 4.109375 -4.359375 C 4.265625 -3.679688 4.550781 -3.160156 4.96875 -2.796875 C 5.394531 -2.429688 6.003906 -2.25 6.796875 -2.25 Z M 6.796875 -2.25 "/></g></g></g><g fill="#ee652f" fill-opacity="1"><g transform="translate(357.730763, 348.094514)"><g><path d="M 12.90625 -14.1875 L 12.90625 0 L 8.171875 0 L 4.625 -11.6875 L 4.421875 -11.6875 L 4.421875 0 L 1.546875 0 L 1.546875 -14.1875 L 6.40625 -14.1875 L 9.828125 -2.5 L 10.03125 -2.5 L 10.03125 -14.1875 Z M 12.90625 -14.1875 "/></g></g></g><g fill="#000000" fill-opacity="1"><g transform="translate(373.538979, 348.094514)"><g/></g></g><g fill="#ee652f" fill-opacity="1"><g transform="translate(379.492103, 348.094514)"><g><path d="M 8.765625 -2.5625 L 3.796875 -2.5625 L 3.234375 0 L 0.359375 0 L 3.546875 -14.1875 L 9.015625 -14.1875 L 12.203125 0 L 9.328125 0 Z M 6.78125 -11.8125 L 5.78125 -11.8125 L 4.34375 -5.0625 L 8.21875 -5.0625 Z M 6.78125 -11.8125 "/></g></g></g><g fill="#ee652f" fill-opacity="1"><g transform="translate(393.398242, 348.094514)"><g><path d="M 9.609375 -2.546875 L 9.609375 0 L 1.546875 0 L 1.546875 -14.1875 L 4.421875 -14.1875 L 4.421875 -2.546875 Z M 9.609375 -2.546875 "/></g></g></g><g fill="#ee652f" fill-opacity="1"><g transform="translate(404.59418, 348.094514)"><g><path d="M 1.171875 -6.828125 L 7.34375 -6.828125 L 7.34375 -4.28125 L 1.171875 -4.28125 Z M 1.171875 -6.828125 "/></g></g></g><g fill="#ee652f" fill-opacity="1"><g transform="translate(414.455862, 348.094514)"><g><path d="M 6.34375 -5.671875 L 4.421875 -5.484375 L 4.421875 0 L 1.546875 0 L 1.546875 -14.1875 L 4.421875 -14.1875 L 4.421875 -7.984375 L 6.359375 -8.171875 L 8.671875 -14.1875 L 11.953125 -14.1875 L 8.859375 -7.09375 L 12.03125 0 L 8.71875 0 Z M 6.34375 -5.671875 "/></g></g></g><g fill="#ee652f" fill-opacity="1"><g transform="translate(428.174374, 348.094514)"><g><path d="M 12.578125 -14.1875 L 12.578125 0 L 9.703125 0 L 9.703125 -5.875 L 4.421875 -5.875 L 4.421875 0 L 1.546875 0 L 1.546875 -14.1875 L 4.421875 -14.1875 L 4.421875 -8.390625 L 9.703125 -8.390625 L 9.703125 -14.1875 Z M 12.578125 -14.1875 "/></g></g></g><g fill="#ee652f" fill-opacity="1"><g transform="translate(443.644096, 348.094514)"><g><path d="M 8.765625 -2.5625 L 3.796875 -2.5625 L 3.234375 0 L 0.359375 0 L 3.546875 -14.1875 L 9.015625 -14.1875 L 12.203125 0 L 9.328125 0 Z M 6.78125 -11.8125 L 5.78125 -11.8125 L 4.34375 -5.0625 L 8.21875 -5.0625 Z M 6.78125 -11.8125 "/></g></g></g><g fill="#ee652f" fill-opacity="1"><g transform="translate(457.550235, 348.094514)"><g><path d="M 1.546875 -14.1875 L 4.421875 -14.1875 L 4.421875 0 L 1.546875 0 Z M 1.546875 -14.1875 "/></g></g></g><g fill="#ee652f" fill-opacity="1"><g transform="translate(464.868491, 348.094514)"><g><path d="M 1.546875 -14.1875 L 7.046875 -14.1875 C 10.390625 -14.1875 12.0625 -12.628906 12.0625 -9.515625 C 12.0625 -7.660156 11.363281 -6.296875 9.96875 -5.421875 L 12 0 L 8.84375 0 L 7.203125 -4.75 L 4.421875 -4.75 L 4.421875 0 L 1.546875 0 Z M 7.09375 -7.21875 C 7.75 -7.21875 8.25 -7.421875 8.59375 -7.828125 C 8.9375 -8.242188 9.109375 -8.796875 9.109375 -9.484375 C 9.109375 -10.179688 8.925781 -10.726562 8.5625 -11.125 C 8.207031 -11.519531 7.703125 -11.71875 7.046875 -11.71875 L 4.421875 -11.71875 L 4.421875 -7.21875 Z M 7.09375 -7.21875 "/></g></g></g><g fill="#000000" fill-opacity="1"><g transform="translate(479.160071, 348.094514)"><g/></g></g><g fill="#ee652f" fill-opacity="1"><g transform="translate(485.113196, 348.094514)"><g><path d="M 4.421875 -11.6875 L 4.421875 -7.515625 L 9.46875 -7.515625 L 9.46875 -5 L 4.421875 -5 L 4.421875 0 L 1.546875 0 L 1.546875 -14.1875 L 10.59375 -14.1875 L 10.59375 -11.6875 Z M 4.421875 -11.6875 "/></g></g></g><g fill="#ee652f" fill-opacity="1"><g transform="translate(497.539144, 348.094514)"><g><path d="M 8.765625 -2.5625 L 3.796875 -2.5625 L 3.234375 0 L 0.359375 0 L 3.546875 -14.1875 L 9.015625 -14.1875 L 12.203125 0 L 9.328125 0 Z M 6.78125 -11.8125 L 5.78125 -11.8125 L 4.34375 -5.0625 L 8.21875 -5.0625 Z M 6.78125 -11.8125 "/></g></g></g><g fill="#ee652f" fill-opacity="1"><g transform="translate(511.445283, 348.094514)"><g><path d="M 6.546875 0.25 C 5.046875 0.25 3.890625 -0.0078125 3.078125 -0.53125 C 2.273438 -1.0625 1.722656 -1.84375 1.421875 -2.875 C 1.128906 -3.914062 0.984375 -5.300781 0.984375 -7.03125 C 0.984375 -8.914062 1.144531 -10.382812 1.46875 -11.4375 C 1.789062 -12.5 2.332031 -13.265625 3.09375 -13.734375 C 3.863281 -14.203125 4.941406 -14.4375 6.328125 -14.4375 C 7.585938 -14.4375 9 -14.25 10.5625 -13.875 L 10.46875 -11.578125 C 9.09375 -11.785156 7.972656 -11.890625 7.109375 -11.890625 C 6.234375 -11.890625 5.570312 -11.75 5.125 -11.46875 C 4.6875 -11.195312 4.378906 -10.742188 4.203125 -10.109375 C 4.023438 -9.472656 3.9375 -8.578125 3.9375 -7.421875 L 3.9375 -6.65625 C 3.96875 -5.457031 4.054688 -4.5625 4.203125 -3.96875 C 4.347656 -3.382812 4.632812 -2.957031 5.0625 -2.6875 C 5.5 -2.425781 6.160156 -2.296875 7.046875 -2.296875 C 7.992188 -2.296875 9.132812 -2.394531 10.46875 -2.59375 L 10.53125 -0.234375 C 9.019531 0.0859375 7.691406 0.25 6.546875 0.25 Z M 6.546875 0.25 "/></g></g></g><g fill="#ee652f" fill-opacity="1"><g transform="translate(524.121411, 348.094514)"><g><path d="M 1.546875 -14.1875 L 4.421875 -14.1875 L 4.421875 0 L 1.546875 0 Z M 1.546875 -14.1875 "/></g></g></g><g fill="#ee652f" fill-opacity="1"><g transform="translate(531.439667, 348.094514)"><g><path d="M 9.609375 -2.546875 L 9.609375 0 L 1.546875 0 L 1.546875 -14.1875 L 4.421875 -14.1875 L 4.421875 -2.546875 Z M 9.609375 -2.546875 "/></g></g></g><g fill="#ee652f" fill-opacity="1"><g transform="translate(542.635604, 348.094514)"><g><path d="M 1.546875 -14.1875 L 4.421875 -14.1875 L 4.421875 0 L 1.546875 0 Z M 1.546875 -14.1875 "/></g></g></g><g fill="#ee652f" fill-opacity="1"><g transform="translate(549.95386, 348.094514)"><g><path d="M 4.0625 -11.640625 L 0.265625 -11.640625 L 0.265625 -14.1875 L 10.703125 -14.1875 L 10.703125 -11.640625 L 6.953125 -11.640625 L 6.953125 0 L 4.0625 0 Z M 4.0625 -11.640625 "/></g></g></g><g fill="#ee652f" fill-opacity="1"><g transform="translate(562.275576, 348.094514)"><g><path d="M 4.375 -5.734375 L 0 -14.1875 L 3.1875 -14.1875 L 5.796875 -8.53125 L 8.40625 -14.1875 L 11.59375 -14.1875 L 7.265625 -5.734375 L 7.265625 0 L 4.375 0 Z M 4.375 -5.734375 "/></g></g></g><g fill="#000000" fill-opacity="1"><g transform="translate(575.253816, 348.094514)"><g/></g></g><g fill="#ee652f" fill-opacity="1"><g transform="translate(581.206941, 348.094514)"><g><path d="M 16.359375 -14.1875 L 16.359375 0 L 13.46875 0 L 13.46875 -10.96875 L 13.15625 -10.96875 L 10.390625 -0.625 L 7.515625 -0.625 L 4.734375 -10.96875 L 4.421875 -10.96875 L 4.421875 0 L 1.546875 0 L 1.546875 -14.1875 L 6.453125 -14.1875 L 8.953125 -3.859375 L 11.453125 -14.1875 Z M 16.359375 -14.1875 "/></g></g></g><g fill="#ee652f" fill-opacity="1"><g transform="translate(600.4501, 348.094514)"><g><path d="M 8.765625 -2.5625 L 3.796875 -2.5625 L 3.234375 0 L 0.359375 0 L 3.546875 -14.1875 L 9.015625 -14.1875 L 12.203125 0 L 9.328125 0 Z M 6.78125 -11.8125 L 5.78125 -11.8125 L 4.34375 -5.0625 L 8.21875 -5.0625 Z M 6.78125 -11.8125 "/></g></g></g><g fill="#ee652f" fill-opacity="1"><g transform="translate(614.356239, 348.094514)"><g><path d="M 12.90625 -14.1875 L 12.90625 0 L 8.171875 0 L 4.625 -11.6875 L 4.421875 -11.6875 L 4.421875 0 L 1.546875 0 L 1.546875 -14.1875 L 6.40625 -14.1875 L 9.828125 -2.5 L 10.03125 -2.5 L 10.03125 -14.1875 Z M 12.90625 -14.1875 "/></g></g></g><g fill="#ee652f" fill-opacity="1"><g transform="translate(630.159522, 348.094514)"><g><path d="M 6.734375 0.25 C 5.273438 0.25 4.125 -0.00390625 3.28125 -0.515625 C 2.4375 -1.035156 1.832031 -1.828125 1.46875 -2.890625 C 1.113281 -3.960938 0.9375 -5.382812 0.9375 -7.15625 C 0.9375 -8.894531 1.125 -10.296875 1.5 -11.359375 C 1.875 -12.421875 2.472656 -13.195312 3.296875 -13.6875 C 4.128906 -14.1875 5.242188 -14.4375 6.640625 -14.4375 C 7.929688 -14.4375 9.328125 -14.289062 10.828125 -14 L 11.578125 -13.84375 L 11.5 -11.625 C 9.882812 -11.800781 8.519531 -11.890625 7.40625 -11.890625 C 6.300781 -11.890625 5.5 -11.703125 5 -11.328125 C 4.5 -10.960938 4.191406 -10.460938 4.078125 -9.828125 C 3.960938 -9.203125 3.90625 -8.265625 3.90625 -7.015625 C 3.90625 -5.773438 3.988281 -4.820312 4.15625 -4.15625 C 4.320312 -3.488281 4.625 -3.003906 5.0625 -2.703125 C 5.5 -2.398438 6.148438 -2.25 7.015625 -2.25 C 7.828125 -2.25 8.398438 -2.28125 8.734375 -2.34375 L 8.734375 -5.09375 L 7.453125 -5.09375 L 7.453125 -7.59375 L 11.578125 -7.59375 L 11.578125 -0.234375 C 9.546875 0.0859375 7.929688 0.25 6.734375 0.25 Z M 6.734375 0.25 "/></g></g></g><g fill="#ee652f" fill-opacity="1"><g transform="translate(644.253297, 348.094514)"><g><path d="M 4.421875 -11.6875 L 4.421875 -8.359375 L 9.46875 -8.359375 L 9.46875 -5.90625 L 4.421875 -5.90625 L 4.421875 -2.5 L 10.71875 -2.5 L 10.71875 0 L 1.546875 0 L 1.546875 -14.1875 L 10.71875 -14.1875 L 10.71875 -11.6875 Z M 4.421875 -11.6875 "/></g></g></g><g fill="#ee652f" fill-opacity="1"><g transform="translate(657.158753, 348.094514)"><g><path d="M 16.359375 -14.1875 L 16.359375 0 L 13.46875 0 L 13.46875 -10.96875 L 13.15625 -10.96875 L 10.390625 -0.625 L 7.515625 -0.625 L 4.734375 -10.96875 L 4.421875 -10.96875 L 4.421875 0 L 1.546875 0 L 1.546875 -14.1875 L 6.453125 -14.1875 L 8.953125 -3.859375 L 11.453125 -14.1875 Z M 16.359375 -14.1875 "/></g></g></g><g fill="#ee652f" fill-opacity="1"><g transform="translate(676.401912, 348.094514)"><g><path d="M 8.765625 -2.5625 L 3.796875 -2.5625 L 3.234375 0 L 0.359375 0 L 3.546875 -14.1875 L 9.015625 -14.1875 L 12.203125 0 L 9.328125 0 Z M 6.78125 -11.8125 L 5.78125 -11.8125 L 4.34375 -5.0625 L 8.21875 -5.0625 Z M 6.78125 -11.8125 "/></g></g></g><g fill="#ee652f" fill-opacity="1"><g transform="translate(690.308051, 348.094514)"><g><path d="M 4.421875 -11.6875 L 4.421875 -8.359375 L 9.46875 -8.359375 L 9.46875 -5.90625 L 4.421875 -5.90625 L 4.421875 -2.5 L 10.71875 -2.5 L 10.71875 0 L 1.546875 0 L 1.546875 -14.1875 L 10.71875 -14.1875 L 10.71875 -11.6875 Z M 4.421875 -11.6875 "/></g></g></g><g fill="#ee652f" fill-opacity="1"><g transform="translate(703.213506, 348.094514)"><g><path d="M 12.90625 -14.1875 L 12.90625 0 L 8.171875 0 L 4.625 -11.6875 L 4.421875 -11.6875 L 4.421875 0 L 1.546875 0 L 1.546875 -14.1875 L 6.40625 -14.1875 L 9.828125 -2.5 L 10.03125 -2.5 L 10.03125 -14.1875 Z M 12.90625 -14.1875 "/></g></g></g><g fill="#ee652f" fill-opacity="1"><g transform="translate(719.016789, 348.094514)"><g><path d="M 4.0625 -11.640625 L 0.265625 -11.640625 L 0.265625 -14.1875 L 10.703125 -14.1875 L 10.703125 -11.640625 L 6.953125 -11.640625 L 6.953125 0 L 4.0625 0 Z M 4.0625 -11.640625 "/></g></g></g></svg>