<svg xmlns="http://www.w3.org/2000/svg" width="1540" height="1230"><clipPath id="a"><path d="M6640.3-783.63V9328.54H-510.33V-783.63z"/></clipPath><g clip-path="url(#a)"><path fill-rule="evenodd" d="M679 378.9c2.4-7.2 9.6-12 18.1-12h21c7.8 0 15 4.8 18 12l33.6 81.1 33.6-81.1c3-7.2 10.2-12 18-12h21c7.9 0 15.1 4.8 17.5 12L915 517h-47.4l-36.1-92.5-33.6 80.5c-3 7.2-10.2 12-18 12h-21c-7.8 0-15-4.8-18-12l-33-80.5-36.7 92.5h-47.4zm152.5-37.2c-12.6 0-22.8-10.2-22.8-22.8s10.2-22.8 22.8-22.8 22.8 10.2 22.8 22.8-10.2 22.8-22.8 22.8m-123.1 0c-12.6 0-22.8-10.2-22.8-22.8s10.2-22.8 22.8-22.8 22.8 10.2 22.8 22.8-10.2 22.8-22.8 22.8M930 .6l-66.7 255.2c-2.4 9-10.2 14.4-18.6 14.4H697c-9 0-16.2-5.4-18.6-13.8L610 .6h47.4c4.2 15.6 12.6 28.8 23.4 40.8q1.8 2.4 4.2 4.3 4.2 4.2 8.4 7.2 3.6 3 7.2 5.4 4.2 3 9 5.4t9.6 4.2q4.2 2.4 8.4 3.6 6.6 2.4 13.2 3.6l7.2 1.8q10.9 1.8 22.3 1.8 10.8 0 21.6-1.8l7.2-1.8q6.6-1.2 13.2-3.6 4.2-1.2 8.4-3.6 4.8-1.8 9.6-4.2t9-5.4q3.6-2.4 7.2-5.4 4.2-3 8.4-7.2 2.4-1.9 4.2-4.3c10.8-12 19.2-25.2 23.4-40.8zM688.7 873.1H309.2c0 9.6 0 24-.6 27.6q-1.2 6.6-5.4 11.5-4.8 4.8-12.6 7.2-7.8 1.8-23.4 1.8H248v-20.5c6 0 9.6-1.2 10.8-2.4.6-1.2 0-13.8 0-25.2h-78l.6-.6V768c0-21 17.4-38.4 38.4-38.4h51.6c21 0 37.8 17.4 37.8 38.4v60.1c5.4 1.8 13.8.6 19.2.6h42.7V768c0-21 17.4-38.4 38.4-38.4h51.6c21 0 37.9 17.4 37.9 38.4v16.8h-50.5V768c0-4.8-6-8.4-13.2-8.4s-13.2 3.6-13.2 8.4v60.7h114.7V650.9h51v177.8h49.8v-.6h.6V650.9h50.5zM258.8 768.7c0-4.8-6-8.5-13.2-8.5s-13.2 3.7-13.2 8.5v60.6h26.4zm784.1 180.2c-14.6 0-26.4-11.9-26.4-26.5s11.8-26.4 26.4-26.4 26.4 11.8 26.4 26.4-11.8 26.5-26.4 26.5m496.5-297.3v221.6h-51V651.6zm-439.5 221.6H749.3v-43.8h94.8v-60.7c0-4.8-6-8.4-13.2-8.4h-17.4c-7.2 0-13.2 3.6-13.2 8.4v16.8h-51v-16.8c0-21 17.4-38.4 38.4-38.4h69.1c21 0 38.4 17.4 38.4 38.4v60.7h142.9v-60.7c0-4.8-6-8.4-13.2-8.4h-17.4c-7.3 0-13.3 3.6-13.3 8.4v16.8h-51v-16.8c0-21 17.4-38.4 38.4-38.4h69.1c21 0 38.4 17.4 38.4 38.4v60.7h10.8zm164.5 49.2c-21 0-38.4-17.4-38.4-38.4v-10.8h-93.7V651.6h51.1v177.1h42.6v-22.8c0-21 17.4-38.4 38.4-38.4h51.7c21 0 38.4 17.4 38.4 38.4v22.8h42.6V651.6h51v221.6h-93.6V884c0 21-17.4 38.4-38.4 38.4zM1277 884c0 4.8 5.4 8.4 12.6 8.4s13.8-3.6 13.8-8.4v-78.1c0-4.8-6-8.4-13.2-8.4s-13.2 3.6-13.2 8.4zM146.4 768.1v104.5H.5v-44.4h94.9v-60.1c0-4.8-6-8.4-13.2-8.4H64.8c-7.2 0-13.2 3.6-13.2 8.4v16.2H.5v-16.2c0-21 17.4-38.4 38.5-38.4h69c21.6 0 38.4 17.4 38.4 38.4M105 969.9l30.6 198.7H81l-3-36H59.4l-3.6 36H.5l27.7-198.7zm-28.3 128.5q-4.2-33.7-8.4-82.3-8.4 56.5-10.2 82.3zm86.5-127.9H216v198.7h-52.8zm500.1 46.9h52.8v165.7q0 18.6-.6 25.2-1.2 6.6-6 12-4.8 4.8-13.2 7.2-7.8 2.4-24.6 2.4h-19.8v-21.6q9.6 0 10.2-1.2 1.2-1.8 1.2-20.4zm26.4-21c-14.6 0-26.4-11.8-26.4-26.4s11.8-26.5 26.4-26.5 26.4 11.9 26.4 26.5-11.8 26.4-26.4 26.4m849.6 172.3h-94.9c-18 0-32.4-14.4-32.4-32.4v-85.9c0-18 14.4-33 32.4-33h42v-46.8h52.9zm-52.9-113.5H1469c-4.8 0-9 4.2-9 9v58.8c0 4.8 4.2 9 9 9h17.4zm-265.9.6v74.5c0 21-17.4 38.4-38.5 38.4h-51.6c-21 0-38.4-17.4-38.4-38.4v-74.5c0-21 17.4-38.4 38.4-38.4h51.6c21.1 0 38.5 17.4 38.5 38.4m-51.1 0c0-4.2-5.4-7.8-12.6-7.8s-13.8 3.6-13.8 7.8v74.5c0 4.8 5.4 8.4 12.6 8.4 7.8 0 13.8-3.6 13.8-8.4zM847 1041.4c3.6 7.2 5.4 28.8 5.4 41.4v17.4H787v37.3c0 4.8 4.2 8.4 9 8.4s9-3.6 9-8.4v-28.9h47.4v16.3c0 7.8-.6 10.8-1.8 15q-1.8 6.6-9 13.8-7.2 7.8-18 11.4t-27.6 3.6q-15.6 0-28.2-3.6-12-3.6-19.2-10.2-6.6-6-9-13.8c-1.8-5.4-3.1-17.4-3.1-27.7v-36c0-11.4 2.5-31.8 6.1-38.4q6-10.2 19.2-15.6t30.6-5.4q21.6 0 35.4 6.6t19.2 16.8m-42 8.4c0-4.8-4.2-8.4-9-8.4s-9 3.6-9 8.4v28.8h18zM473.6 1033q2.4 7.8 2.4 24v112.3h-49.3v-121.9c0-4.8-3.6-8.4-8.4-8.4s-9 3.6-9 8.4v121.9h-49.8v-121.9c0-4.8-3.6-8.4-8.4-8.4s-9 3.6-9 8.4v121.9h-48.6V1018h50.4l-.6 13.2q6-7.8 13.8-11.4 8.4-4.2 18.6-4.2 21 0 32.4 15.6 6.6-7.8 15-11.4 7.9-4.2 18.1-4.2 12.6 0 21.6 5.4 8.4 4.8 10.8 12m850.1-14.4h50.5v150.1h-52.3l1.2-10.8q-5.4 6.6-13.2 10.2-7.8 3-18 3-11.4 0-19.2-3t-11.4-8.4-4.2-11.4q-1.2-6-1.2-23.4v-106.3h50.4v121.3c0 4.2 3.6 7.8 8.4 7.8s9-3.6 9-7.8zm-699.4 25.2c1.8 6.6 2.4 25.2 2.4 47.4v78.1h-49.9v-11.4q-4.8 6.6-12 10.2t-17.4 3.6q-13.8 0-24.6-6-11.4-6-11.4-25.8v-22.2q0-15 6-20.4 6-5.5 29.4-12.7l7.2-2.4q4.8-1.8 10.2-3.6c4.2-1.8 12-3.6 12-9.6v-19.2c0-4.2-3.6-7.8-8.4-7.8s-9 3.6-9 7.8v27h-47.4v-9c0-10.8 1.2-22.8 4.2-28.2q4.8-8.4 18.6-15 13.2-6.6 34.8-6.6 25.9 0 39.1 7.8 13.2 7.2 16.2 18m-48.1 49.8-12 9.1c-4.8 3-5.4 8.4-5.4 11.4v25.8c0 4.2 4.2 8.4 8.4 8.4 4.8 0 9-4.2 9-8.4zm432.9 75h-94.8c-18 0-32.5-15-32.5-33V1051c0-18.1 14.5-33.1 32.5-33.1h42v-46.8h52.8zm-52.8-112.9h-17.4c-4.8 0-9 4.2-9 9v58.9c0 4.8 4.2 9 9 9h17.4z"/></g></svg>